<?xml version="1.0" encoding="UTF-8"?><svg xmlns="http://www.w3.org/2000/svg" xmlns:xlink="http://www.w3.org/1999/xlink"><symbol viewBox="0 0 23 44" id="arrow" xmlns="http://www.w3.org/2000/svg"><title>arrow</title><g transform="rotate(90 11.5 11.5)" fill-rule="nonzero"><path d="M42.5 0a1.5 1.5 0 1 1 0 3 1.5 1.5 0 0 1 0-3z" opacity=".245"/><path d="M37.5 0a1.5 1.5 0 1 1-.002 3 1.5 1.5 0 0 1 .003-3z" opacity=".598"/><path d="M37.5 5a1.5 1.5 0 1 1-.002 3.001A1.5 1.5 0 0 1 37.5 5z" opacity=".839"/><path d="M31.499 5a1.5 1.5 0 1 1 0 0z"/><path d="M31.499 10c.828 0 1.501.672 1.501 1.5a1.501 1.501 0 0 1-3 0 1.5 1.5 0 0 1 1.499-1.5z" opacity=".598"/><path d="M26.5 10a1.5 1.5 0 1 1 .001 3 1.5 1.5 0 0 1-.002-3z"/><path d="M26.5 15a1.5 1.5 0 1 1 .002 2.998A1.5 1.5 0 0 1 26.5 15z" opacity=".245"/><path d="M21.5 15a1.5 1.5 0 1 1 0 3 1.5 1.5 0 0 1 0-3z" opacity=".691"/><path d="M21.5 20a1.5 1.5 0 1 1 0 3 1.5 1.5 0 0 1 0-3z"/><path d="M16.5 10a1.5 1.5 0 1 1-.002 3.001A1.5 1.5 0 0 1 16.501 10z" opacity=".809"/><path d="M16.5 15a1.5 1.5 0 1 1 0 3 1.5 1.5 0 0 1 0-3z" opacity=".407"/><path d="M11.501 5a1.5 1.5 0 1 1-.003 3.001A1.5 1.5 0 0 1 11.5 5z" opacity=".245"/><path d="M11.501 10a1.5 1.5 0 1 1-.003 3.001A1.5 1.5 0 0 1 11.5 10z" opacity=".646"/><path d="M6.5 0a1.5 1.5 0 1 1 .002 3 1.5 1.5 0 0 1-.003-3zM6.5 5a1.5 1.5 0 1 1 0 3 1.5 1.5 0 0 1 0-3z"/><path d="M1.5 0A1.5 1.5 0 1 1 0 1.5C0 .671.67 0 1.5 0z" opacity=".245"/></g></symbol></svg>