<?xml version="1.0" encoding="UTF-8"?>
<svg width="23px" height="44px" viewBox="0 0 23 44" version="1.1" xmlns="http://www.w3.org/2000/svg" xmlns:xlink="http://www.w3.org/1999/xlink">
    <!-- Generator: Sketch 48.2 (47327) - http://www.bohemiancoding.com/sketch -->
    <title>arrow</title>
    <g id="Page-1" stroke="none" stroke-width="1" fill-rule="evenodd">
        <g id="Group-Copy-3" transform="translate(11.500000, 22.000000) rotate(-270.000000) translate(-11.500000, -22.000000) translate(-10.500000, 10.500000)" fill-rule="nonzero">
            <path d="M42.5,0 C43.3274931,0 44,0.671033241 44,1.5 C44,2.32847552 43.3274931,3 42.5,3 C41.6700508,3 41.0000001,2.32847552 41.0000001,1.5 C40.9997544,0.67127886 41.6700508,0 42.5,0 Z" id="Shape" opacity="0.245471014"></path>
            <path d="M37.5008593,0 C38.3270317,0 39,0.671033241 39,1.5 C39,2.32847552 38.3270317,3 37.5008593,3 C36.6714952,3 36,2.32847552 36,1.5 C36,0.67127886 36.6714952,0 37.5008593,0 Z" id="Shape"  opacity="0.59839221"></path>
            <path d="M37.5008593,5 C38.3270317,5 39,5.67119476 39,6.5012275 C39,7.32880524 38.3270317,8 37.5008593,8 C36.6714952,8 36,7.32880524 36,6.5012275 C36,5.67119476 36.6714952,5 37.5008593,5 Z" id="Shape"  opacity="0.839221014"></path>
            <path d="M31.4987729,5 C32.3268161,5 33,5.67119476 33,6.5012275 C33,7.32880524 32.3268161,8 31.4987729,8 C30.6724476,8 30,7.32880524 30,6.5012275 C30,5.67119476 30.6724476,5 31.4987729,5 Z" id="Shape" ></path>
            <path d="M31.4987729,10 C32.3268161,10 33,10.6715245 33,11.5004912 C33,12.3284755 32.3268161,13 31.4987729,13 C30.6724476,13 30,12.3284755 30,11.5004912 C30,10.6715245 30.6724476,10 31.4987729,10 Z" id="Shape"  opacity="0.59839221"></path>
            <path d="M26.499386,10 C27.3290217,10 28,10.6715245 28,11.5004912 C28,12.3284755 27.3290217,13 26.499386,13 C25.6726976,13 25.0000001,12.3284755 25.0000001,11.5004912 C24.9997545,10.6715245 25.6726976,10 26.499386,10 Z" id="Shape" ></path>
            <path d="M26.499386,15 C27.3290217,15 28,15.6711948 28,16.4987725 C28,17.3283142 27.3290217,18 26.499386,18 C25.6726976,18 25.0000001,17.3283142 25.0000001,16.4987725 C24.9997545,15.6714403 25.6726976,15 26.499386,15 Z" id="Shape"  opacity="0.245471014"></path>
            <path d="M21.5,15 C22.3296775,15 23,15.6711948 23,16.4987725 C23,17.3283142 22.3296775,18 21.5,18 C20.6703225,18 20,17.3283142 20,16.4987725 C20,15.6714403 20.6703225,15 21.5,15 Z" id="Shape"  opacity="0.690500453"></path>
            <path d="M21.5,20 C22.3296775,20 23,20.6719057 23,21.5007367 C23,22.3290766 22.3296775,23 21.5,23 C20.6703225,23 20,22.3290766 20,21.5007367 C20,20.6719057 20.6703225,20 21.5,20 Z" id="Shape" ></path>
            <path d="M16.500614,10 C17.3273025,10 18,10.6715245 18,11.5004912 C18,12.3284755 17.3273025,13 16.500614,13 C15.6709783,13 15,12.3284755 15,11.5004912 C15,10.6715245 15.6709783,10 16.500614,10 Z" id="Shape"  opacity="0.808537138"></path>
            <path d="M16.500614,15 C17.3273025,15 18,15.6711948 18,16.4987725 C18,17.3283142 17.3273025,18 16.500614,18 C15.6709783,18 15,17.3283142 15,16.4987725 C15,15.6714403 15.6709783,15 16.500614,15 Z" id="Shape"  opacity="0.407042572"></path>
            <path d="M11.5009815,5 C12.3271716,5 13,5.67119476 13,6.5012275 C13,7.32880524 12.3271716,8 11.5009815,8 C10.6730738,8 10.0000001,7.32880524 10.0000001,6.5012275 C9.99975469,5.67119476 10.6730738,5 11.5009815,5 Z" id="Shape"  opacity="0.245471014"></path>
            <path d="M11.5009815,10 C12.3271716,10 13,10.6715245 13,11.5004912 C13,12.3284755 12.3271716,13 11.5009815,13 C10.6730738,13 10.0000001,12.3284755 10.0000001,11.5004912 C9.99975469,10.6715245 10.6730738,10 11.5009815,10 Z" id="Shape"  opacity="0.645946558"></path>
            <path d="M6.49914068,0 C7.32875031,0 8,0.671033241 8,1.5 C8,2.32847552 7.32875031,3 6.49914068,3 C5.67296833,3 5,2.32847552 5,1.5 C5,0.67127886 5.67296833,0 6.49914068,0 Z" id="Shape" ></path>
            <path d="M6.49914068,5 C7.32875031,5 8,5.67119476 8,6.5012275 C8,7.32880524 7.32875031,8 6.49914068,8 C5.67296833,8 5,7.32880524 5,6.5012275 C5,5.67119476 5.67296833,5 6.49914068,5 Z" id="Shape" ></path>
            <path d="M1.50024562,0 C2.32994924,0 3,0.671033241 3,1.5 C3,2.32847552 2.32970362,3 1.50024562,3 C0.670050761,3 0,2.32847552 0,1.5 C0,0.67127886 0.670296381,0 1.50024562,0 Z" id="Shape"  opacity="0.245471014"></path>
        </g>
    </g>
</svg>
