<?xml version="1.0" encoding="UTF-8"?>
<svg width="87px" height="18px" viewBox="0 0 87 18" version="1.1" xmlns="http://www.w3.org/2000/svg" xmlns:xlink="http://www.w3.org/1999/xlink">
    <!-- Generator: Sketch 48.2 (47327) - http://www.bohemiancoding.com/sketch -->
    <title>Group Copy 8</title>
    <desc>Created with Sketch.</desc>
    <defs></defs>
    <g id="Page-1" stroke="none" stroke-width="1" fill="none" fill-rule="evenodd" >
        <g id="Group-Copy-8" fill-rule="nonzero">
            <ellipse id="Oval" fill="#FF0000" opacity="0.387964221" cx="6.6995897" cy="2.353385" rx="1.7181907" ry="1.7061353"></ellipse>
            <ellipse id="Oval" fill="#FF0000" cx="11.5790424" cy="2.353385" rx="1" ry="1"></ellipse>
            <ellipse id="Oval" fill="#FF5B5B" cx="16.4585552" cy="2.3533926" rx="1.8988348" ry="1.8855251"></ellipse>
            <ellipse id="Oval" fill="#FF0000" cx="21.3379879" cy="2.3533831" rx="1" ry="1"></ellipse>
            <ellipse id="Oval" fill="#FF0000" cx="26.2174835" cy="2.3533926" rx="1" ry="1"></ellipse>
            <ellipse id="Oval" fill="#FF0000" cx="31.0969429" cy="2.3533754" rx="1.8178225" ry="1.8050967"></ellipse>
            <ellipse id="Oval" fill="#FF0000" opacity="0.387964221" cx="35.9764442" cy="2.353385" rx="1" ry="1"></ellipse>
            <ellipse id="Oval" fill="#FF0000" cx="40.8559151" cy="2.353385" rx="1.3374882" ry="1.3281091"></ellipse>
            <ellipse id="Oval" fill="#FF0000" cx="45.7353706" cy="2.353385" rx="1.3371052" ry="1.3277165"></ellipse>
            <ellipse id="Oval" fill="#FF0000" cx="50.6148491" cy="2.353385" rx="1" ry="1"></ellipse>
            <ellipse id="Oval" fill="#FF5B5B" cx="55.4943428" cy="2.3533831" rx="1.7076769" ry="1.6956837"></ellipse>
            <ellipse id="Oval" fill="#FF0000" cx="60.3738098" cy="2.353385" rx="1" ry="1"></ellipse>
            <ellipse id="Oval" fill="#FF0000" opacity="0.576313406" cx="65.2532959" cy="2.353385" rx="1.8091758" ry="1.7964981"></ellipse>
            <ellipse id="Oval" fill="#FF0000" cx="70.1327362" cy="2.3533897" rx="1.8178655" ry="1.8051255"></ellipse>
            <ellipse id="Oval" fill="#FF0000" cx="75.0122681" cy="2.353385" rx="1.3200992" ry="1.3108351"></ellipse>
            <ellipse id="Oval" fill="#FF0000" cx="79.8917236" cy="2.3533831" rx="1.3066938" ry="1.2975492"></ellipse>
            <ellipse id="Oval" fill="#FF0000" opacity="0.387964221" cx="84.7711792" cy="2.3533831" rx="1.7133838" ry="1.7013906"></ellipse>
            <ellipse id="Oval" fill="#FF0000" opacity="0.576313406" cx="1.820097" cy="7.2374315" rx="1.5908717" ry="1.579726"></ellipse>
            <ellipse id="Oval" fill="#FF0000" cx="6.6995897" cy="7.2374382" rx="1.3315371" ry="1.3222011"></ellipse>
            <ellipse id="Oval" fill="#FF0000" cx="11.5790405" cy="7.2374334" rx="1" ry="1"></ellipse>
            <ellipse id="Oval" fill="#FF0000" cx="16.4585342" cy="7.2374363" rx="1" ry="1"></ellipse>
            <ellipse id="Oval" fill="#FF0000" opacity="0.576313406" cx="21.338007" cy="7.2374458" rx="1.8694289" ry="1.8563393"></ellipse>
            <ellipse id="Oval" fill="#FF0000" cx="26.2174721" cy="7.2374382" rx="1.18467" ry="1.1763968"></ellipse>
            <ellipse id="Oval" fill="#FF0000" opacity="0.387964221" cx="31.0969467" cy="7.2374363" rx="1" ry="1"></ellipse>
            <ellipse id="Oval" fill="#FF0000" cx="35.9764442" cy="7.2374382" rx="1" ry="1"></ellipse>
            <ellipse id="Oval" fill="#FF0000" cx="40.8559113" cy="7.2374506" rx="1.0077124" ry="1.0006456"></ellipse>
            <ellipse id="Oval" fill="#FF0000" cx="45.7353706" cy="7.2374363" rx="1.6990495" ry="1.6871808"></ellipse>
            <ellipse id="Oval" fill="#FF0000" cx="50.6148491" cy="7.2374382" rx="1" ry="1"></ellipse>
            <ellipse id="Oval" fill="#FF0000" cx="55.4943428" cy="7.2374382" rx="1.134993" ry="1.1270549"></ellipse>
            <ellipse id="Oval" fill="#FF0000" cx="60.3738174" cy="7.2374363" rx="1.7987148" ry="1.7861136"></ellipse>
            <ellipse id="Oval" fill="#FF0000" cx="65.2532806" cy="7.2374363" rx="1.5838434" ry="1.5727743"></ellipse>
            <ellipse id="Oval" fill="#FF0000" opacity="0.387964221" cx="75.0122299" cy="7.2374382" rx="1.0066495" ry="1"></ellipse>
            <ellipse id="Oval" fill="#FF0000" opacity="0.576313406" cx="79.8917236" cy="7.2374477" rx="1.304702" ry="1.2955624"></ellipse>
            <ellipse id="Oval" fill="#FF0000" cx="84.7711792" cy="7.2374363" rx="1.5167439" ry="1.5060914"></ellipse>
            <ellipse id="Oval" fill="#FF0000" cx="1.8201065" cy="12.1214981" rx="1" ry="1"></ellipse>
            <ellipse id="Oval" fill="#FF0000" cx="6.6995926" cy="12.1214943" rx="1" ry="1"></ellipse>
            <ellipse id="Oval" fill="#FF0000" cx="11.5790424" cy="12.1214943" rx="1" ry="1"></ellipse>
            <ellipse id="Oval" fill="#FF5B5B" cx="16.45854" cy="12.1214943" rx="1.5880948" ry="1.5770258"></ellipse>
            <ellipse id="Oval" fill="#FF0000" cx="21.338007" cy="12.1214924" rx="1.1749367" ry="1.1666683"></ellipse>
            <ellipse id="Oval" fill="#FF0000" opacity="0.387964221" cx="31.0969429" cy="12.1214943" rx="1.6079302" ry="1.5967127"></ellipse>
            <ellipse id="Oval" fill="#FF0000" cx="35.9764633" cy="12.1214962" rx="1.4041232" ry="1.3943324"></ellipse>
            <ellipse id="Oval" fill="#FF0000" opacity="0.387964221" cx="40.8559151" cy="12.1214943" rx="1.4661812" ry="1.4559164"></ellipse>
            <ellipse id="Oval" fill="#FF0000" cx="45.7353859" cy="12.1214943" rx="1" ry="1"></ellipse>
            <ellipse id="Oval" fill="#FF0000" opacity="0.576313406" cx="50.6148338" cy="12.1214943" rx="1.8297437" ry="1.8169463"></ellipse>
            <ellipse id="Oval" fill="#FF0000" cx="55.4943657" cy="12.1214943" rx="1.5500615" ry="1.5391839"></ellipse>
            <ellipse id="Oval" fill="#FF0000" cx="60.3738174" cy="12.1214924" rx="1" ry="1"></ellipse>
            <ellipse id="Oval" fill="#FF0000" cx="65.2532959" cy="12.1214924" rx="1" ry="1"></ellipse>
            <ellipse id="Oval" fill="#FF0000" cx="70.1327515" cy="12.1214924" rx="1.2973003" ry="1.2882372"></ellipse>
            <ellipse id="Oval" fill="#FF0000" opacity="0.576313406" cx="79.8917236" cy="12.1214943" rx="1.311515" ry="1.3023274"></ellipse>
            <ellipse id="Oval" fill="#FF5B5B" cx="84.7711792" cy="12.1214943" rx="1" ry="1"></ellipse>
            <ellipse id="Oval" fill="#FF0000" cx="1.8201065" cy="17.0055428" rx="1" ry="1"></ellipse>
            <ellipse id="Oval" fill="#FF0000" cx="11.5790367" cy="17.0055275" rx="1" ry="1"></ellipse>
            <ellipse id="Oval" fill="#FF0000" cx="45.7353668" cy="17.0055428" rx="1" ry="1"></ellipse>
            <ellipse id="Oval" fill="#FF0000" cx="65.2532959" cy="17.0055428" rx="1" ry="1"></ellipse>
            <ellipse id="Oval" fill="#FF5B5B" cx="79.8917084" cy="17.0055428" rx="1" ry="1"></ellipse>
        </g>
    </g>
</svg>
