<?xml version="1.0" encoding="UTF-8"?>
<svg width="181px" height="225px" viewBox="0 0 181 225" version="1.1" xmlns="http://www.w3.org/2000/svg" xmlns:xlink="http://www.w3.org/1999/xlink">
    <!-- Generator: Sketch 48.2 (47327) - http://www.bohemiancoding.com/sketch -->
    <title>stats1</title>
    <desc>Created with Sketch.</desc>
    <defs></defs>
    <g id="Page-1" stroke="none" stroke-width="1" fill="none" fill-rule="evenodd">
        <g id="Group-5">
            <path d="M14.82,204.992 C16.7280095,204.992 18.2309945,205.419496 19.329,206.2745 C20.4270055,207.129504 20.976,208.303993 20.976,209.798 C20.976,210.734005 20.7195026,211.557496 20.2065,212.2685 C19.6934974,212.979504 18.9780046,213.523998 18.06,213.902 C19.266006,214.280002 20.2109966,214.887496 20.895,215.7245 C21.5790034,216.561504 21.921,217.555994 21.921,218.708 C21.921,220.382008 21.2865063,221.704995 20.0175,222.677 C18.7484937,223.649005 17.0250109,224.135 14.847,224.135 C12.6689891,224.135 10.9455063,223.653505 9.6765,222.6905 C8.40749366,221.727495 7.773,220.418008 7.773,218.762 C7.773,217.591994 8.12399649,216.584004 8.826,215.738 C9.52800351,214.891996 10.4999938,214.280002 11.742,213.902 C10.7699951,213.487998 10.0185027,212.925504 9.4875,212.2145 C8.95649735,211.503496 8.691,210.671005 8.691,209.717 C8.691,208.258993 9.23999451,207.107004 10.338,206.261 C11.4360055,205.414996 12.9299906,204.992 14.82,204.992 Z M14.847,206.882 C13.6049938,206.882 12.6375035,207.151997 11.9445,207.692 C11.2514965,208.232003 10.905,208.978995 10.905,209.933 C10.905,210.905005 11.2514965,211.660997 11.9445,212.201 C12.6375035,212.741003 13.6049938,213.011 14.847,213.011 C16.0890062,213.011 17.0519966,212.741003 17.736,212.201 C18.4200034,211.660997 18.762,210.905005 18.762,209.933 C18.762,208.978995 18.4200034,208.232003 17.736,207.692 C17.0519966,207.151997 16.0890062,206.882 14.847,206.882 Z M14.82,215.063 C13.3799928,215.063 12.2550041,215.364497 11.445,215.9675 C10.6349959,216.570503 10.23,217.402995 10.23,218.465 C10.23,219.599006 10.6349959,220.480997 11.445,221.111 C12.2550041,221.741003 13.3889927,222.056 14.847,222.056 C16.2870072,222.056 17.4164959,221.741003 18.2355,221.111 C19.0545041,220.480997 19.464,219.608006 19.464,218.492 C19.464,217.429995 19.0545041,216.593003 18.2355,215.981 C17.4164959,215.368997 16.2780073,215.063 14.82,215.063 Z M37.5,208.34 C36.905997,207.961998 36.2265038,207.669501 35.4615,207.4625 C34.6964962,207.255499 33.9450037,207.152 33.207,207.152 C31.3889909,207.152 29.9940049,207.781994 29.022,209.042 C28.0499951,210.302006 27.564,212.029989 27.564,214.226 C27.564,214.568002 27.5729999,214.828999 27.591,215.009 C28.0590023,213.982995 28.7609953,213.200003 29.697,212.66 C30.6330047,212.119997 31.7579934,211.85 33.072,211.85 C34.9620095,211.85 36.4514946,212.389995 37.5405,213.47 C38.6295054,214.550005 39.174,216.007991 39.174,217.844 C39.174,219.122006 38.9040027,220.233495 38.364,221.1785 C37.8239973,222.123505 37.059005,222.852497 36.069,223.3655 C35.0789951,223.878503 33.9270066,224.135 32.613,224.135 C31.0469922,224.135 29.6925057,223.775004 28.5495,223.055 C27.4064943,222.334996 26.533503,221.286507 25.9305,219.9095 C25.327497,218.532493 25.026,216.88101 25.026,214.955 C25.026,212.95699 25.3544967,211.206508 26.0115,209.7035 C26.6685033,208.200492 27.595494,207.039504 28.7925,206.2205 C29.989506,205.401496 31.3979919,204.992 33.018,204.992 C33.9180045,204.992 34.867495,205.117999 35.8665,205.37 C36.865505,205.622001 37.7519961,205.954998 38.526,206.369 L37.5,208.34 Z M32.613,213.929 C31.6949954,213.929 30.8940034,214.113498 30.21,214.4825 C29.5259966,214.851502 28.9995018,215.341997 28.6305,215.954 C28.2614982,216.566003 28.0859999,217.231996 28.104,217.952 C28.0859999,218.582003 28.2389984,219.193997 28.563,219.788 C28.8870016,220.382003 29.3774967,220.876998 30.0345,221.273 C30.6915033,221.669002 31.4969952,221.867 32.451,221.867 C33.7470065,221.867 34.7864961,221.507004 35.5695,220.787 C36.3525039,220.066996 36.744,219.077006 36.744,217.817 C36.744,216.628994 36.3705037,215.684004 35.6235,214.982 C34.8764963,214.279996 33.8730063,213.929 32.613,213.929 Z M51.135,209.636 C52.8090084,209.636 54.1229952,210.126495 55.077,211.1075 C56.0310048,212.088505 56.508,213.442991 56.508,215.171 L56.508,224 L53.997,224 L53.997,215.846 C53.997,214.639994 53.6595034,213.699503 52.9845,213.0245 C52.3094966,212.349497 51.3780059,212.012 50.19,212.012 C48.8039931,212.03 47.7060041,212.497995 46.896,213.416 C46.0859959,214.334005 45.681,215.521993 45.681,216.98 L45.681,224 L43.17,224 L43.17,203.966 L45.681,203.966 L45.681,212.795 C46.6350048,210.72499 48.4529866,209.672 51.135,209.636 Z M73.842,213.119 C75.7320095,213.227001 77.2349944,213.721996 78.351,214.604 C79.4670056,215.486004 80.025,216.673993 80.025,218.168 C80.025,219.338006 79.723503,220.372995 79.1205,221.273 C78.517497,222.173004 77.6625055,222.874997 76.5555,223.379 C75.4484945,223.883003 74.1570074,224.135 72.681,224.135 C71.4929941,224.135 70.300506,223.955002 69.1035,223.595 C67.906494,223.234998 66.8760043,222.758003 66.012,222.164 L67.119,220.058 C67.8750038,220.652003 68.7209953,221.110998 69.657,221.435 C70.5930047,221.759002 71.5469951,221.921 72.519,221.921 C74.0670077,221.921 75.2819956,221.588003 76.164,220.922 C77.0460044,220.255997 77.487,219.365006 77.487,218.249 C77.487,217.132994 77.0460044,216.282503 76.164,215.6975 C75.2819956,215.112497 74.040008,214.82 72.438,214.82 L69.846,214.82 L69.846,213.173 L75.651,207.449 L66.93,207.449 L66.903,205.1 L79.053,205.1 L79.053,206.747 L72.708,213.038 L73.842,213.119 Z M96.549,216.818 L96.549,219.14 L93.633,219.14 L93.633,224 L91.203,224 L91.203,219.14 L81.834,219.14 L81.834,217.142 L88.584,205.1 L91.122,205.1 L84.642,216.818 L91.203,216.818 L91.203,211.985 L93.633,211.985 L93.633,216.818 L96.549,216.818 Z M118.257,209.636 C119.895008,209.636 121.181995,210.130995 122.118,211.121 C123.054005,212.111005 123.522,213.460991 123.522,215.171 L123.522,224 L120.984,224 L120.984,215.846 C120.984,214.639994 120.655503,213.695003 119.9985,213.011 C119.341497,212.326997 118.437006,211.985 117.285,211.985 C115.934993,212.021 114.873004,212.497995 114.099,213.416 C113.324996,214.334005 112.938,215.512993 112.938,216.953 L112.938,224 L110.4,224 L110.4,215.846 C110.4,214.639994 110.076003,213.695003 109.428,213.011 C108.779997,212.326997 107.871006,211.985 106.701,211.985 C105.350993,212.021 104.284504,212.497995 103.5015,213.416 C102.718496,214.334005 102.327,215.512993 102.327,216.953 L102.327,224 L99.816,224 L99.816,209.717 L102.327,209.717 L102.327,212.714 C103.263005,210.69799 105.035987,209.672 107.646,209.636 C108.960007,209.636 110.053496,209.950997 110.9265,210.581 C111.799504,211.211003 112.388998,212.092994 112.695,213.227 C113.577004,210.868988 115.430986,209.672 118.257,209.636 Z M147.768,216.818 L147.768,219.14 L144.852,219.14 L144.852,224 L142.422,224 L142.422,219.14 L133.053,219.14 L133.053,217.142 L139.803,205.1 L142.341,205.1 L135.861,216.818 L142.422,216.818 L142.422,211.985 L144.852,211.985 L144.852,216.818 L147.768,216.818 Z M156.813,213.119 C158.703009,213.227001 160.205994,213.721996 161.322,214.604 C162.438006,215.486004 162.996,216.673993 162.996,218.168 C162.996,219.338006 162.694503,220.372995 162.0915,221.273 C161.488497,222.173004 160.633506,222.874997 159.5265,223.379 C158.419494,223.883003 157.128007,224.135 155.652,224.135 C154.463994,224.135 153.271506,223.955002 152.0745,223.595 C150.877494,223.234998 149.847004,222.758003 148.983,222.164 L150.09,220.058 C150.846004,220.652003 151.691995,221.110998 152.628,221.435 C153.564005,221.759002 154.517995,221.921 155.49,221.921 C157.038008,221.921 158.252996,221.588003 159.135,220.922 C160.017004,220.255997 160.458,219.365006 160.458,218.249 C160.458,217.132994 160.017004,216.282503 159.135,215.6975 C158.252996,215.112497 157.011008,214.82 155.409,214.82 L152.817,214.82 L152.817,213.173 L158.622,207.449 L149.901,207.449 L149.874,205.1 L162.024,205.1 L162.024,206.747 L155.679,213.038 L156.813,213.119 Z M174.633,212.876 C174.038997,212.515998 173.386504,212.228001 172.6755,212.012 C171.964496,211.795999 171.285003,211.688 170.637,211.688 C169.880996,211.688 169.273502,211.827499 168.8145,212.1065 C168.355498,212.385501 168.126,212.812997 168.126,213.389 C168.126,213.965003 168.382497,214.401499 168.8955,214.6985 C169.408503,214.995501 170.186995,215.296998 171.231,215.603 C172.221005,215.891001 173.030997,216.178999 173.661,216.467 C174.291003,216.755001 174.826498,217.177997 175.2675,217.736 C175.708502,218.294003 175.929,219.031995 175.929,219.95 C175.929,221.300007 175.420505,222.325996 174.4035,223.028 C173.386495,223.730004 172.122008,224.081 170.61,224.081 C169.547995,224.081 168.517505,223.910002 167.5185,223.568 C166.519495,223.225998 165.678003,222.740003 164.994,222.11 L165.939,220.274 C166.533003,220.814003 167.266496,221.245998 168.1395,221.57 C169.012504,221.894002 169.862996,222.056 170.691,222.056 C171.519004,222.056 172.184997,221.903002 172.689,221.597 C173.193003,221.290998 173.445,220.823003 173.445,220.193 C173.445,219.544997 173.179503,219.059002 172.6485,218.735 C172.117497,218.410998 171.312005,218.087002 170.232,217.763 C169.277995,217.492999 168.499503,217.218501 167.8965,216.9395 C167.293497,216.660499 166.780502,216.251003 166.3575,215.711 C165.934498,215.170997 165.723,214.469004 165.723,213.605 C165.723,212.272993 166.208995,211.274003 167.181,210.608 C168.153005,209.941997 169.367993,209.609 170.826,209.609 C171.690004,209.609 172.540496,209.730499 173.3775,209.9735 C174.214504,210.216501 174.938997,210.544998 175.551,210.959 L174.633,212.876 Z" id="86h-34m-43s-copy" fill="#FBF5F5"></path>
            <path d="M45.57,96.162 C53.8860416,96.162 61.2009684,97.5479861 67.515,100.32 C73.8290316,103.092014 78.7056495,106.941975 82.145,111.87 C85.5843505,116.798025 87.304,122.444635 87.304,128.81 C87.304,136.304704 85.5073513,142.875305 81.914,148.522 C78.3206487,154.168695 73.1873667,158.531985 66.514,161.612 C59.8406333,164.692015 52.0893775,166.232 43.26,166.232 C36.0732974,166.232 28.6557049,165.000012 21.007,162.536 C13.3582951,160.071988 6.55669644,156.83802 0.602,152.834 L11.074,132.506 C21.0327165,140.51404 30.7346194,144.518 40.18,144.518 C45.5186934,144.518 49.6766518,143.311679 52.654,140.899 C55.6313482,138.486321 57.12,135.175354 57.12,130.966 C57.12,126.756646 55.6570146,123.548344 52.731,121.341 C49.8049854,119.133656 45.4160293,118.03 39.564,118.03 C25.9092651,118.03 16.0533636,118.235331 9.996,118.646 L9.996,57.046 L82.53,57.046 L82.53,79.684 L35.868,79.684 L35.868,96.162 L45.57,96.162 Z M180.628,142.362 L180.628,165 L98.392,165 L98.238,146.366 L137.508,106.018 C140.588015,102.835317 143.103324,99.6526826 145.054,96.47 C147.004676,93.2873174 147.98,90.566678 147.98,88.308 C147.98,85.3306518 146.902011,83.0463413 144.746,81.455 C142.589989,79.8636587 139.561353,79.068 135.66,79.068 C131.347978,79.068 126.54836,80.2743213 121.261,82.687 C115.97364,85.0996787 110.866025,88.4619784 105.938,92.774 L95.158,71.984 C110.044741,61.2039461 124.982592,55.814 139.972,55.814 C147.158703,55.814 153.600972,56.9946549 159.299,59.356 C164.997028,61.7173451 169.462984,65.0539784 172.697,69.366 C175.931016,73.6780216 177.548,78.6059723 177.548,84.15 C177.548,89.6940277 175.725685,95.4176372 172.081,101.321 C168.436315,107.224363 163.277367,113.512633 156.604,120.186 L134.582,142.362 L180.628,142.362 Z" id="52-copy-2" fill="#FBF5F5"></path>
            <path d="M39.43,2.1 C41.7880118,2.1 43.6104936,2.65799442 44.8975,3.774 C46.1845064,4.89000558 46.828,6.45598992 46.828,8.472 C46.828,10.5780105 46.1800065,12.2114942 44.884,13.3725 C43.5879935,14.5335058 41.7700117,15.114 39.43,15.114 L34.732,15.114 L34.732,21 L32.14,21 L32.14,2.1 L39.43,2.1 Z M39.322,12.765 C40.9420081,12.765 42.1839957,12.4095036 43.048,11.6985 C43.9120043,10.9874964 44.344,9.93900693 44.344,8.553 C44.344,7.20299325 43.9120043,6.18150346 43.048,5.4885 C42.1839957,4.79549653 40.9420081,4.449 39.322,4.449 L34.732,4.476 L34.732,12.765 L39.322,12.765 Z M55.954,6.636 C57.3760071,6.636 58.6404945,6.94199694 59.7475,7.554 C60.8545055,8.16600306 61.7184969,9.01649456 62.3395,10.1055 C62.9605031,11.1945054 63.271,12.440993 63.271,13.845 C63.271,15.249007 62.9605031,16.4999945 62.3395,17.598 C61.7184969,18.6960055 60.8545055,19.5509969 59.7475,20.163 C58.6404945,20.7750031 57.3760071,21.081 55.954,21.081 C54.5139928,21.081 53.2405055,20.7750031 52.1335,20.163 C51.0264945,19.5509969 50.1625031,18.7005054 49.5415,17.6115 C48.9204969,16.5224946 48.61,15.2670071 48.61,13.845 C48.61,12.440993 48.9204969,11.1945054 49.5415,10.1055 C50.1625031,9.01649456 51.0264945,8.16600306 52.1335,7.554 C53.2405055,6.94199694 54.5139928,6.636 55.954,6.636 Z M55.954,8.823 C55.0179953,8.823 54.1855036,9.03899784 53.4565,9.471 C52.7274964,9.90300216 52.160502,10.5014962 51.7555,11.2665 C51.350498,12.0315038 51.148,12.8999951 51.148,13.872 C51.148,14.862005 51.350498,15.7439961 51.7555,16.518 C52.160502,17.2920039 52.7274964,17.8904979 53.4565,18.3135 C54.1855036,18.7365021 55.0179953,18.948 55.954,18.948 C56.8720046,18.948 57.6954964,18.7365021 58.4245,18.3135 C59.1535036,17.8904979 59.720498,17.2920039 60.1255,16.518 C60.530502,15.7439961 60.733,14.862005 60.733,13.872 C60.733,12.8999951 60.530502,12.0315038 60.1255,11.2665 C59.720498,10.5014962 59.1535036,9.90300216 58.4245,9.471 C57.6954964,9.03899784 56.8720046,8.823 55.954,8.823 Z M80.092,0.966 L80.092,21 L77.581,21 L77.581,18.165 C77.0409973,19.1190048 76.3165045,19.8524974 75.4075,20.3655 C74.4984955,20.8785026 73.441006,21.135 72.235,21.135 C70.8849933,21.135 69.6925052,20.8245031 68.6575,20.2035 C67.6224948,19.5824969 66.8170029,18.7185055 66.241,17.6115 C65.6649971,16.5044945 65.377,15.2400071 65.377,13.818 C65.377,12.413993 65.6649971,11.1675054 66.241,10.0785 C66.8170029,8.98949455 67.6224948,8.13900306 68.6575,7.527 C69.6925052,6.91499694 70.8759933,6.609 72.208,6.609 C73.4320061,6.609 74.5029954,6.86099748 75.421,7.365 C76.3390046,7.86900252 77.0589974,8.59799523 77.581,9.552 L77.581,0.966 L80.092,0.966 Z M72.748,18.975 C73.6840047,18.975 74.5164964,18.7590022 75.2455,18.327 C75.9745036,17.8949978 76.5459979,17.2920039 76.96,16.518 C77.3740021,15.7439961 77.581,14.8710049 77.581,13.899 C77.581,12.9089951 77.3740021,12.0270039 76.96,11.253 C76.5459979,10.4789961 75.9745036,9.87600216 75.2455,9.444 C74.5164964,9.01199784 73.6840047,8.796 72.748,8.796 C71.8119953,8.796 70.9795036,9.01649779 70.2505,9.4575 C69.5214964,9.8985022 68.9500021,10.5059961 68.536,11.28 C68.1219979,12.0540039 67.915,12.9269951 67.915,13.899 C67.915,14.8710049 68.1219979,15.7439961 68.536,16.518 C68.9500021,17.2920039 69.5214964,17.8949978 70.2505,18.327 C70.9795036,18.7590022 71.8119953,18.975 72.748,18.975 Z M95.158,10.524 C94.0239943,9.42599451 92.6650079,8.877 91.081,8.877 C90.1449953,8.877 89.3125036,9.08399793 88.5835,9.498 C87.8544964,9.91200207 87.2830021,10.4969962 86.869,11.253 C86.4549979,12.0090038 86.248,12.8819951 86.248,13.872 C86.248,14.862005 86.450498,15.7349962 86.8555,16.491 C87.260502,17.2470038 87.8184964,17.8364979 88.5295,18.2595 C89.2405036,18.6825021 90.0549954,18.894 90.973,18.894 C91.8910046,18.894 92.7189963,18.7410015 93.457,18.435 C94.1950037,18.1289985 94.8069976,17.6880029 95.293,17.112 L96.724,18.57 C96.0759968,19.3800041 95.252505,20.0009978 94.2535,20.433 C93.254495,20.8650022 92.1250063,21.081 90.865,21.081 C89.4789931,21.081 88.2460054,20.7750031 87.166,20.163 C86.0859946,19.5509969 85.244503,18.7005054 84.6415,17.6115 C84.038497,16.5224946 83.737,15.276007 83.737,13.872 C83.737,12.467993 84.038497,11.2170055 84.6415,10.119 C85.244503,9.02099451 86.0859946,8.16600306 87.166,7.554 C88.2460054,6.94199694 89.4789931,6.636 90.865,6.636 C92.071006,6.636 93.1554952,6.82049815 94.1185,7.1895 C95.0815048,7.55850185 95.8869968,8.09399649 96.535,8.796 L95.158,10.524 Z M109.036,21 L109.036,19.002 C107.973995,20.406007 106.309011,21.108 104.041,21.108 C103.050995,21.108 102.182504,20.9190019 101.4355,20.541 C100.688496,20.1629981 100.112502,19.6410033 99.7075,18.975 C99.302498,18.3089967 99.1,17.5620041 99.1,16.734 C99.1,15.4559936 99.5724953,14.4435037 100.5175,13.6965 C101.462505,12.9494963 102.780992,12.5670001 104.473,12.549 L109.009,12.549 L109.009,11.874 C109.009,10.865995 108.698503,10.0875027 108.0775,9.5385 C107.456497,8.98949725 106.552006,8.715 105.364,8.715 C103.923993,8.715 102.457007,9.22799487 100.963,10.254 L99.91,8.526 C100.936005,7.85999667 101.885496,7.37850149 102.7585,7.0815 C103.631504,6.78449851 104.670994,6.636 105.877,6.636 C107.659009,6.636 109.035995,7.07249563 110.008,7.9455 C110.980005,8.81850436 111.475,10.0379922 111.493,11.604 L111.52,21 L109.036,21 Z M104.554,19.029 C105.724006,19.029 106.718496,18.7455028 107.5375,18.1785 C108.356504,17.6114972 108.846999,16.8600047 109.009,15.924 L109.009,14.493 L104.824,14.493 C103.689994,14.493 102.848503,14.6639983 102.2995,15.006 C101.750497,15.3480017 101.476,15.8879963 101.476,16.626 C101.476,17.3640037 101.754997,17.9489978 102.313,18.381 C102.871003,18.8130022 103.617995,19.029 104.554,19.029 Z M123.805,9.876 C123.210997,9.5159982 122.558504,9.22800108 121.8475,9.012 C121.136496,8.79599892 120.457003,8.688 119.809,8.688 C119.052996,8.688 118.445502,8.8274986 117.9865,9.1065 C117.527498,9.3855014 117.298,9.81299712 117.298,10.389 C117.298,10.9650029 117.554497,11.4014985 118.0675,11.6985 C118.580503,11.9955015 119.358995,12.2969985 120.403,12.603 C121.393005,12.8910014 122.202997,13.1789986 122.833,13.467 C123.463003,13.7550014 123.998498,14.1779972 124.4395,14.736 C124.880502,15.2940028 125.101,16.0319954 125.101,16.95 C125.101,18.3000067 124.592505,19.3259965 123.5755,20.028 C122.558495,20.7300035 121.294008,21.081 119.782,21.081 C118.719995,21.081 117.689505,20.9100017 116.6905,20.568 C115.691495,20.2259983 114.850003,19.7400032 114.166,19.11 L115.111,17.274 C115.705003,17.8140027 116.438496,18.2459984 117.3115,18.57 C118.184504,18.8940016 119.034996,19.056 119.863,19.056 C120.691004,19.056 121.356997,18.9030015 121.861,18.597 C122.365003,18.2909985 122.617,17.8230031 122.617,17.193 C122.617,16.5449968 122.351503,16.0590016 121.8205,15.735 C121.289497,15.4109984 120.484005,15.0870016 119.404,14.763 C118.449995,14.4929987 117.671503,14.2185014 117.0685,13.9395 C116.465497,13.6604986 115.952502,13.2510027 115.5295,12.711 C115.106498,12.1709973 114.895,11.4690043 114.895,10.605 C114.895,9.27299334 115.380995,8.27400333 116.353,7.608 C117.325005,6.94199667 118.539993,6.609 119.998,6.609 C120.862004,6.609 121.712496,6.73049879 122.5495,6.9735 C123.386504,7.21650121 124.110997,7.54499793 124.723,7.959 L123.805,9.876 Z M136.09,20.055 C134.991995,20.7570035 133.876006,21.108 132.742,21.108 C131.607994,21.108 130.690004,20.7705034 129.988,20.0955 C129.285996,19.4204966 128.935,18.3990068 128.935,17.031 L128.935,9.12 L126.91,9.12 L126.91,7.203 L128.935,7.203 L128.935,3.369 L131.473,3.369 L131.473,7.203 L135.847,7.203 L135.847,9.12 L131.473,9.12 L131.473,16.572 C131.473,17.364004 131.616999,17.9309983 131.905,18.273 C132.193001,18.6150017 132.624997,18.786 133.201,18.786 C133.885003,18.786 134.622996,18.5610023 135.415,18.111 L136.09,20.055 Z M144.865,6.636 C147.079011,6.636 148.752994,7.28849347 149.887,8.5935 C151.021006,9.89850653 151.588,11.7119884 151.588,14.034 C151.588,14.3940018 151.579,14.6639991 151.561,14.844 L140.275,14.844 C140.473001,16.1220064 141.008496,17.1389962 141.8815,17.895 C142.754504,18.6510038 143.829994,19.029 145.108,19.029 C145.954004,19.029 146.741496,18.8760015 147.4705,18.57 C148.199504,18.2639985 148.833997,17.8320028 149.374,17.274 L150.751,18.705 C150.048996,19.4610038 149.203005,20.0459979 148.213,20.46 C147.222995,20.8740021 146.125006,21.081 144.919,21.081 C143.514993,21.081 142.268505,20.779503 141.1795,20.1765 C140.090495,19.573497 139.244503,18.7230055 138.6415,17.625 C138.038497,16.5269945 137.737,15.276007 137.737,13.872 C137.737,12.467993 138.038497,11.2215054 138.6415,10.1325 C139.244503,9.04349456 140.085995,8.1885031 141.166,7.5675 C142.246005,6.94649689 143.478993,6.636 144.865,6.636 Z M149.32,12.9 C149.248,11.6039935 148.816004,10.5825037 148.024,9.8355 C147.231996,9.08849627 146.188006,8.715 144.892,8.715 C143.631994,8.715 142.583504,9.09299622 141.7465,9.849 C140.909496,10.6050038 140.410001,11.6219936 140.248,12.9 L149.32,12.9 Z" id="Podcaste-Copy-2" fill="#D0021B"></path>
        </g>
    </g>
</svg>