<?xml version="1.0" encoding="UTF-8"?>
<svg width="254px" height="253px" viewBox="0 0 254 253" version="1.1" xmlns="http://www.w3.org/2000/svg" xmlns:xlink="http://www.w3.org/1999/xlink">
    <!-- Generator: Sketch 48.2 (47327) - http://www.bohemiancoding.com/sketch -->
    <title>stats4</title>
    <desc>Created with Sketch.</desc>
    <defs></defs>
    <g id="Page-1" stroke="none" stroke-width="1" fill="none" fill-rule="evenodd">
        <g id="Group-2">
            <path d="M42.8805,224 L39.7485,224 L33.1065,215.279 L29.6235,219.059 L29.6235,224 L27.0315,224 L27.0315,205.1 L29.6235,205.1 L29.6235,215.711 L39.2895,205.1 L42.3945,205.1 L34.9155,213.254 L42.8805,224 Z M51.8175,209.636 C53.2395071,209.636 54.5039945,209.941997 55.611,210.554 C56.7180055,211.166003 57.5819969,212.016495 58.203,213.1055 C58.8240031,214.194505 59.1345,215.440993 59.1345,216.845 C59.1345,218.249007 58.8240031,219.499995 58.203,220.598 C57.5819969,221.696005 56.7180055,222.550997 55.611,223.163 C54.5039945,223.775003 53.2395071,224.081 51.8175,224.081 C50.3774928,224.081 49.1040055,223.775003 47.997,223.163 C46.8899945,222.550997 46.0260031,221.700505 45.405,220.6115 C44.7839969,219.522495 44.4735,218.267007 44.4735,216.845 C44.4735,215.440993 44.7839969,214.194505 45.405,213.1055 C46.0260031,212.016495 46.8899945,211.166003 47.997,210.554 C49.1040055,209.941997 50.3774928,209.636 51.8175,209.636 Z M51.8175,211.823 C50.8814953,211.823 50.0490036,212.038998 49.32,212.471 C48.5909964,212.903002 48.024002,213.501496 47.619,214.2665 C47.213998,215.031504 47.0115,215.899995 47.0115,216.872 C47.0115,217.862005 47.213998,218.743996 47.619,219.518 C48.024002,220.292004 48.5909964,220.890498 49.32,221.3135 C50.0490036,221.736502 50.8814953,221.948 51.8175,221.948 C52.7355046,221.948 53.5589964,221.736502 54.288,221.3135 C55.0170036,220.890498 55.583998,220.292004 55.989,219.518 C56.394002,218.743996 56.5965,217.862005 56.5965,216.872 C56.5965,215.899995 56.394002,215.031504 55.989,214.2665 C55.583998,213.501496 55.0170036,212.903002 54.288,212.471 C53.5589964,212.038998 52.7355046,211.823 51.8175,211.823 Z M72.6345,224 L68.0715,217.061 L65.2905,219.95 L65.2905,224 L62.7795,224 L62.7795,203.966 L65.2905,203.966 L65.2905,216.737 L72.2025,209.717 L75.1455,209.717 L69.8265,215.252 L75.6585,224 L72.6345,224 Z M88.3485,224 L83.7855,217.061 L81.0045,219.95 L81.0045,224 L78.4935,224 L78.4935,203.966 L81.0045,203.966 L81.0045,216.737 L87.9165,209.717 L90.8595,209.717 L85.5405,215.252 L91.3725,224 L88.3485,224 Z M106.7085,209.717 L106.7085,224 L104.1705,224 L104.1705,220.976 C103.234495,223.01001 101.470513,224.045 98.8785,224.081 C97.2224917,224.081 95.9265047,223.590505 94.9905,222.6095 C94.0544953,221.628495 93.5865,220.274009 93.5865,218.546 L93.5865,209.717 L96.1245,209.717 L96.1245,217.871 C96.1245,219.077006 96.4529967,220.017497 97.11,220.6925 C97.7670033,221.367503 98.6714942,221.705 99.8235,221.705 C101.155507,221.687 102.212996,221.214505 102.996,220.2875 C103.779004,219.360495 104.1705,218.177007 104.1705,216.737 L104.1705,209.717 L106.7085,209.717 Z M124.6095,209.636 C126.031507,209.636 127.295994,209.941997 128.403,210.554 C129.510006,211.166003 130.373997,212.016495 130.995,213.1055 C131.616003,214.194505 131.9265,215.440993 131.9265,216.845 C131.9265,218.249007 131.616003,219.499995 130.995,220.598 C130.373997,221.696005 129.510006,222.550997 128.403,223.163 C127.295994,223.775003 126.031507,224.081 124.6095,224.081 C123.169493,224.081 121.896006,223.775003 120.789,223.163 C119.681994,222.550997 118.818003,221.700505 118.197,220.6115 C117.575997,219.522495 117.2655,218.267007 117.2655,216.845 C117.2655,215.440993 117.575997,214.194505 118.197,213.1055 C118.818003,212.016495 119.681994,211.166003 120.789,210.554 C121.896006,209.941997 123.169493,209.636 124.6095,209.636 Z M124.6095,211.823 C123.673495,211.823 122.841004,212.038998 122.112,212.471 C121.382996,212.903002 120.816002,213.501496 120.411,214.2665 C120.005998,215.031504 119.8035,215.899995 119.8035,216.872 C119.8035,217.862005 120.005998,218.743996 120.411,219.518 C120.816002,220.292004 121.382996,220.890498 122.112,221.3135 C122.841004,221.736502 123.673495,221.948 124.6095,221.948 C125.527505,221.948 126.350996,221.736502 127.08,221.3135 C127.809004,220.890498 128.375998,220.292004 128.781,219.518 C129.186002,218.743996 129.3885,217.862005 129.3885,216.872 C129.3885,215.899995 129.186002,215.031504 128.781,214.2665 C128.375998,213.501496 127.809004,212.903002 127.08,212.471 C126.350996,212.038998 125.527505,211.823 124.6095,211.823 Z M143.3745,209.636 C145.048508,209.636 146.362495,210.126495 147.3165,211.1075 C148.270505,212.088505 148.7475,213.442991 148.7475,215.171 L148.7475,224 L146.2365,224 L146.2365,215.846 C146.2365,214.639994 145.899003,213.699503 145.224,213.0245 C144.548997,212.349497 143.617506,212.012 142.4295,212.012 C141.151494,212.03 140.112004,212.439496 139.311,213.2405 C138.509996,214.041504 138.055501,215.080994 137.9475,216.359 L137.9475,224 L135.4365,224 L135.4365,209.717 L137.9475,209.717 L137.9475,212.741 C138.901505,210.70699 140.710487,209.672 143.3745,209.636 Z M178.7445,209.636 C180.382508,209.636 181.669495,210.130995 182.6055,211.121 C183.541505,212.111005 184.0095,213.460991 184.0095,215.171 L184.0095,224 L181.4715,224 L181.4715,215.846 C181.4715,214.639994 181.143003,213.695003 180.486,213.011 C179.828997,212.326997 178.924506,211.985 177.7725,211.985 C176.422493,212.021 175.360504,212.497995 174.5865,213.416 C173.812496,214.334005 173.4255,215.512993 173.4255,216.953 L173.4255,224 L170.8875,224 L170.8875,215.846 C170.8875,214.639994 170.563503,213.695003 169.9155,213.011 C169.267497,212.326997 168.358506,211.985 167.1885,211.985 C165.838493,212.021 164.772004,212.497995 163.989,213.416 C163.205996,214.334005 162.8145,215.512993 162.8145,216.953 L162.8145,224 L160.3035,224 L160.3035,209.717 L162.8145,209.717 L162.8145,212.714 C163.750505,210.69799 165.523487,209.672 168.1335,209.636 C169.447507,209.636 170.540996,209.950997 171.414,210.581 C172.287004,211.211003 172.876498,212.092994 173.1825,213.227 C174.064504,210.868988 175.918486,209.672 178.7445,209.636 Z M194.2155,209.636 C196.429511,209.636 198.103494,210.288493 199.2375,211.5935 C200.371506,212.898507 200.9385,214.711988 200.9385,217.034 C200.9385,217.394002 200.9295,217.663999 200.9115,217.844 L189.6255,217.844 C189.823501,219.122006 190.358996,220.138996 191.232,220.895 C192.105004,221.651004 193.180494,222.029 194.4585,222.029 C195.304504,222.029 196.091996,221.876002 196.821,221.57 C197.550004,221.263998 198.184497,220.832003 198.7245,220.274 L200.1015,221.705 C199.399496,222.461004 198.553505,223.045998 197.5635,223.46 C196.573495,223.874002 195.475506,224.081 194.2695,224.081 C192.865493,224.081 191.619005,223.779503 190.53,223.1765 C189.440995,222.573497 188.595003,221.723005 187.992,220.625 C187.388997,219.526995 187.0875,218.276007 187.0875,216.872 C187.0875,215.467993 187.388997,214.221505 187.992,213.1325 C188.595003,212.043495 189.436495,211.188503 190.5165,210.5675 C191.596505,209.946497 192.829493,209.636 194.2155,209.636 Z M198.6705,215.9 C198.5985,214.603994 198.166504,213.582504 197.3745,212.8355 C196.582496,212.088496 195.538506,211.715 194.2425,211.715 C192.982494,211.715 191.934004,212.092996 191.097,212.849 C190.259996,213.605004 189.760501,214.621994 189.5985,215.9 L198.6705,215.9 Z M204.3675,209.717 L206.8785,209.717 L206.8785,224 L204.3675,224 L204.3675,209.717 Z M205.6095,204.02 C206.059502,204.02 206.432999,204.172998 206.73,204.479 C207.027001,204.785002 207.1755,205.171998 207.1755,205.64 C207.1755,206.108002 207.027001,206.494998 206.73,206.801 C206.432999,207.107002 206.059502,207.26 205.6095,207.26 C205.159498,207.26 204.786001,207.107002 204.489,206.801 C204.191999,206.494998 204.0435,206.108002 204.0435,205.64 C204.0435,205.171998 204.191999,204.785002 204.489,204.479 C204.786001,204.172998 205.159498,204.02 205.6095,204.02 Z M225.0765,203.966 L225.0765,224 L222.5655,224 L222.5655,221.165 C222.025497,222.119005 221.301005,222.852497 220.392,223.3655 C219.482995,223.878503 218.425506,224.135 217.2195,224.135 C215.869493,224.135 214.677005,223.824503 213.642,223.2035 C212.606995,222.582497 211.801503,221.718506 211.2255,220.6115 C210.649497,219.504494 210.3615,218.240007 210.3615,216.818 C210.3615,215.413993 210.649497,214.167505 211.2255,213.0785 C211.801503,211.989495 212.606995,211.139003 213.642,210.527 C214.677005,209.914997 215.860493,209.609 217.1925,209.609 C218.416506,209.609 219.487495,209.860997 220.4055,210.365 C221.323505,210.869003 222.043497,211.597995 222.5655,212.552 L222.5655,203.966 L225.0765,203.966 Z M217.7325,221.975 C218.668505,221.975 219.500996,221.759002 220.23,221.327 C220.959004,220.894998 221.530498,220.292004 221.9445,219.518 C222.358502,218.743996 222.5655,217.871005 222.5655,216.899 C222.5655,215.908995 222.358502,215.027004 221.9445,214.253 C221.530498,213.478996 220.959004,212.876002 220.23,212.444 C219.500996,212.011998 218.668505,211.796 217.7325,211.796 C216.796495,211.796 215.964004,212.016498 215.235,212.4575 C214.505996,212.898502 213.934502,213.505996 213.5205,214.28 C213.106498,215.054004 212.8995,215.926995 212.8995,216.899 C212.8995,217.871005 213.106498,218.743996 213.5205,219.518 C213.934502,220.292004 214.505996,220.894998 215.235,221.327 C215.964004,221.759002 216.796495,221.975 217.7325,221.975 Z M80.802,237.636 C82.4760084,237.636 83.7899952,238.126495 84.744,239.1075 C85.6980048,240.088505 86.175,241.442991 86.175,243.171 L86.175,252 L83.664,252 L83.664,243.846 C83.664,242.639994 83.3265034,241.699503 82.6515,241.0245 C81.9764966,240.349497 81.0450059,240.012 79.857,240.012 C78.5789936,240.03 77.539504,240.439496 76.7385,241.2405 C75.937496,242.041504 75.4830005,243.080994 75.375,244.359 L75.375,252 L72.864,252 L72.864,237.717 L75.375,237.717 L75.375,240.741 C76.3290048,238.70699 78.1379867,237.672 80.802,237.636 Z M103.293,237.717 L103.293,252 L100.755,252 L100.755,248.976 C99.8189953,251.01001 98.055013,252.045 95.463,252.081 C93.8069917,252.081 92.5110047,251.590505 91.575,250.6095 C90.6389953,249.628495 90.171,248.274009 90.171,246.546 L90.171,237.717 L92.709,237.717 L92.709,245.871 C92.709,247.077006 93.0374967,248.017497 93.6945,248.6925 C94.3515033,249.367503 95.2559942,249.705 96.408,249.705 C97.7400067,249.687 98.7974961,249.214505 99.5805,248.2875 C100.363504,247.360495 100.755,246.177007 100.755,244.737 L100.755,237.717 L103.293,237.717 Z M94.653,232.182 C95.0670021,232.182 95.4089986,232.321499 95.679,232.6005 C95.9490013,232.879501 96.084,233.234998 96.084,233.667 C96.084,234.081002 95.9490013,234.427499 95.679,234.7065 C95.4089986,234.985501 95.0670021,235.125 94.653,235.125 C94.2389979,235.125 93.8970014,234.985501 93.627,234.7065 C93.3569987,234.427499 93.222,234.081002 93.222,233.667 C93.222,233.234998 93.3569987,232.879501 93.627,232.6005 C93.8970014,232.321499 94.2389979,232.182 94.653,232.182 Z M99.297,232.182 C99.7110021,232.182 100.052999,232.321499 100.323,232.6005 C100.593001,232.879501 100.728,233.234998 100.728,233.667 C100.728,234.081002 100.593001,234.427499 100.323,234.7065 C100.052999,234.985501 99.7110021,235.125 99.297,235.125 C98.8829979,235.125 98.5410013,234.985501 98.271,234.7065 C98.0009986,234.427499 97.866,234.081002 97.866,233.667 C97.866,233.234998 98.0009986,232.879501 98.271,232.6005 C98.5410013,232.321499 98.8829979,232.182 99.297,232.182 Z M120.816,237.717 L120.816,252 L118.278,252 L118.278,248.976 C117.341995,251.01001 115.578013,252.045 112.986,252.081 C111.329992,252.081 110.034005,251.590505 109.098,250.6095 C108.161995,249.628495 107.694,248.274009 107.694,246.546 L107.694,237.717 L110.232,237.717 L110.232,245.871 C110.232,247.077006 110.560497,248.017497 111.2175,248.6925 C111.874503,249.367503 112.778994,249.705 113.931,249.705 C115.263007,249.687 116.320496,249.214505 117.1035,248.2875 C117.886504,247.360495 118.278,246.177007 118.278,244.737 L118.278,237.717 L120.816,237.717 Z M112.176,232.182 C112.590002,232.182 112.931999,232.321499 113.202,232.6005 C113.472001,232.879501 113.607,233.234998 113.607,233.667 C113.607,234.081002 113.472001,234.427499 113.202,234.7065 C112.931999,234.985501 112.590002,235.125 112.176,235.125 C111.761998,235.125 111.420001,234.985501 111.15,234.7065 C110.879999,234.427499 110.745,234.081002 110.745,233.667 C110.745,233.234998 110.879999,232.879501 111.15,232.6005 C111.420001,232.321499 111.761998,232.182 112.176,232.182 Z M116.82,232.182 C117.234002,232.182 117.575999,232.321499 117.846,232.6005 C118.116001,232.879501 118.251,233.234998 118.251,233.667 C118.251,234.081002 118.116001,234.427499 117.846,234.7065 C117.575999,234.985501 117.234002,235.125 116.82,235.125 C116.405998,235.125 116.064001,234.985501 115.794,234.7065 C115.523999,234.427499 115.389,234.081002 115.389,233.667 C115.389,233.234998 115.523999,232.879501 115.794,232.6005 C116.064001,232.321499 116.405998,232.182 116.82,232.182 Z M139.014,231.966 L139.014,252 L136.503,252 L136.503,249.165 C135.962997,250.119005 135.238505,250.852497 134.3295,251.3655 C133.420495,251.878503 132.363006,252.135 131.157,252.135 C129.806993,252.135 128.614505,251.824503 127.5795,251.2035 C126.544495,250.582497 125.739003,249.718506 125.163,248.6115 C124.586997,247.504494 124.299,246.240007 124.299,244.818 C124.299,243.413993 124.586997,242.167505 125.163,241.0785 C125.739003,239.989495 126.544495,239.139003 127.5795,238.527 C128.614505,237.914997 129.797993,237.609 131.13,237.609 C132.354006,237.609 133.424995,237.860997 134.343,238.365 C135.261005,238.869003 135.980997,239.597995 136.503,240.552 L136.503,231.966 L139.014,231.966 Z M131.67,249.975 C132.606005,249.975 133.438496,249.759002 134.1675,249.327 C134.896504,248.894998 135.467998,248.292004 135.882,247.518 C136.296002,246.743996 136.503,245.871005 136.503,244.899 C136.503,243.908995 136.296002,243.027004 135.882,242.253 C135.467998,241.478996 134.896504,240.876002 134.1675,240.444 C133.438496,240.011998 132.606005,239.796 131.67,239.796 C130.733995,239.796 129.901504,240.016498 129.1725,240.4575 C128.443496,240.898502 127.872002,241.505996 127.458,242.28 C127.043998,243.054004 126.837,243.926995 126.837,244.899 C126.837,245.871005 127.043998,246.743996 127.458,247.518 C127.872002,248.292004 128.443496,248.894998 129.1725,249.327 C129.901504,249.759002 130.733995,249.975 131.67,249.975 Z M156.915,241.119 C158.805009,241.227001 160.307994,241.721996 161.424,242.604 C162.540006,243.486004 163.098,244.673993 163.098,246.168 C163.098,247.338006 162.796503,248.372995 162.1935,249.273 C161.590497,250.173004 160.735506,250.874997 159.6285,251.379 C158.521494,251.883003 157.230007,252.135 155.754,252.135 C154.565994,252.135 153.373506,251.955002 152.1765,251.595 C150.979494,251.234998 149.949004,250.758003 149.085,250.164 L150.192,248.058 C150.948004,248.652003 151.793995,249.110998 152.73,249.435 C153.666005,249.759002 154.619995,249.921 155.592,249.921 C157.140008,249.921 158.354996,249.588003 159.237,248.922 C160.119004,248.255997 160.56,247.365006 160.56,246.249 C160.56,245.132994 160.119004,244.282503 159.237,243.6975 C158.354996,243.112497 157.113008,242.82 155.511,242.82 L152.919,242.82 L152.919,241.173 L158.724,235.449 L150.003,235.449 L149.976,233.1 L162.126,233.1 L162.126,234.747 L155.781,241.038 L156.915,241.119 Z M167.688,248.76 C168.300003,249.138002 168.979496,249.430499 169.7265,249.6375 C170.473504,249.844501 171.215996,249.948 171.954,249.948 C173.754009,249.948 175.135495,249.313506 176.0985,248.0445 C177.061505,246.775494 177.543,245.043011 177.543,242.847 C177.543,242.504998 177.534,242.244001 177.516,242.064 C177.065998,243.108005 176.377505,243.899997 175.4505,244.44 C174.523495,244.980003 173.403007,245.25 172.089,245.25 C170.216991,245.25 168.741005,244.710005 167.661,243.63 C166.580995,242.549995 166.041,241.092009 166.041,239.256 C166.041,237.977994 166.310997,236.866505 166.851,235.9215 C167.391003,234.976495 168.151495,234.252003 169.1325,233.748 C170.113505,233.243997 171.251994,232.992 172.548,232.992 C174.096008,232.992 175.436994,233.351996 176.571,234.072 C177.705006,234.792004 178.573497,235.835993 179.1765,237.204 C179.779503,238.572007 180.081,240.20999 180.081,242.118 C180.081,244.11601 179.757003,245.870992 179.109,247.383 C178.460997,248.895008 177.534006,250.064996 176.328,250.893 C175.121994,251.721004 173.718008,252.135 172.116,252.135 C171.233996,252.135 170.298005,252.004501 169.308,251.7435 C168.317995,251.482499 167.436004,251.145002 166.662,250.731 L167.688,248.76 Z M172.71,235.233 C171.431994,235.233 170.406004,235.592996 169.632,236.313 C168.857996,237.033004 168.471,238.022994 168.471,239.283 C168.471,240.471006 168.839996,241.415996 169.578,242.118 C170.316004,242.820004 171.305994,243.171 172.548,243.171 C173.466005,243.171 174.262497,242.986502 174.9375,242.6175 C175.612503,242.248498 176.129998,241.753503 176.49,241.1325 C176.850002,240.511497 177.03,239.841004 177.03,239.121 C177.03,238.508997 176.872502,237.901503 176.5575,237.2985 C176.242498,236.695497 175.761003,236.200502 175.113,235.8135 C174.464997,235.426498 173.664005,235.233 172.71,235.233 Z" id="Kokku-on-meid-nüüd-3-Copy" fill="#D0021B"></path>
            <path d="M38.951,57.046 L87.923,57.046 L87.923,165 L59.741,165 L59.741,80.146 L38.951,80.146 L38.951,57.046 Z M157.839,56.122 C173.13641,56.122 184.917292,60.8446194 193.182,70.29 C201.446708,79.7353806 205.579,93.287245 205.579,110.946 C205.579,128.604755 201.446708,142.182286 193.182,151.679 C184.917292,161.175714 173.13641,165.924 157.839,165.924 C142.336256,165.924 130.452708,161.175714 122.188,151.679 C113.923292,142.182286 109.791,128.604755 109.791,110.946 C109.791,93.287245 113.923292,79.7353806 122.188,70.29 C130.452708,60.8446194 142.336256,56.122 157.839,56.122 Z M157.839,77.066 C151.062966,77.066 146.186348,79.7096402 143.209,84.997 C140.231652,90.2843598 138.743,98.9339399 138.743,110.946 C138.743,123.060727 140.231652,131.76164 143.209,137.049 C146.186348,142.33636 151.062966,144.98 157.839,144.98 C164.4097,144.98 169.209318,142.310693 172.238,136.972 C175.266682,131.633307 176.781,122.95806 176.781,110.946 C176.781,98.9339399 175.266682,90.2843598 172.238,84.997 C169.209318,79.7096402 164.4097,77.066 157.839,77.066 Z" id="10-copy" fill="#FBF5F5"></path>
            <path d="M3.178,13.278 C3.178,15.0240087 3.65949519,16.3874951 4.6225,17.3685 C5.58550482,18.3495049 6.91299154,18.84 8.605,18.84 C10.2790084,18.84 11.5929952,18.3495049 12.547,17.3685 C13.5010048,16.3874951 13.978,15.0240087 13.978,13.278 L13.978,2.1 L16.57,2.1 L16.57,13.278 C16.57,15.7440123 15.8635071,17.678993 14.4505,19.083 C13.0374929,20.487007 11.0890124,21.189 8.605,21.189 C6.10298749,21.189 4.14100711,20.487007 2.719,19.083 C1.29699289,17.678993 0.586,15.7440123 0.586,13.278 L0.586,2.1 L3.178,2.1 L3.178,13.278 Z M33.958,6.717 L33.958,21 L31.42,21 L31.42,17.976 C30.4839953,20.0100102 28.720013,21.0449998 26.128,21.081 C24.4719917,21.081 23.1760047,20.5905049 22.24,19.6095 C21.3039953,18.6284951 20.836,17.2740086 20.836,15.546 L20.836,6.717 L23.374,6.717 L23.374,14.871 C23.374,16.077006 23.7024967,17.0174966 24.3595,17.6925 C25.0165033,18.3675034 25.9209942,18.705 27.073,18.705 C28.4050067,18.6869999 29.4624961,18.2145046 30.2455,17.2875 C31.0285039,16.3604954 31.42,15.1770072 31.42,13.737 L31.42,6.717 L33.958,6.717 Z M46.648,9.876 C46.053997,9.5159982 45.4015036,9.22800108 44.6905,9.012 C43.9794964,8.79599892 43.3000032,8.688 42.652,8.688 C41.8959962,8.688 41.2885023,8.8274986 40.8295,9.1065 C40.3704977,9.3855014 40.141,9.81299712 40.141,10.389 C40.141,10.9650029 40.3974974,11.4014985 40.9105,11.6985 C41.4235026,11.9955015 42.2019948,12.2969985 43.246,12.603 C44.2360049,12.8910014 45.0459968,13.1789986 45.676,13.467 C46.3060031,13.7550014 46.8414978,14.1779972 47.2825,14.736 C47.7235022,15.2940028 47.944,16.0319954 47.944,16.95 C47.944,18.3000067 47.4355051,19.3259965 46.4185,20.028 C45.4014949,20.7300035 44.1370076,21.081 42.625,21.081 C41.5629947,21.081 40.532505,20.9100017 39.5335,20.568 C38.534495,20.2259983 37.6930034,19.7400032 37.009,19.11 L37.954,17.274 C38.548003,17.8140027 39.2814956,18.2459984 40.1545,18.57 C41.0275044,18.8940016 41.8779959,19.056 42.706,19.056 C43.5340041,19.056 44.1999975,18.9030015 44.704,18.597 C45.2080025,18.2909985 45.46,17.8230031 45.46,17.193 C45.46,16.5449968 45.1945027,16.0590016 44.6635,15.735 C44.1324973,15.4109984 43.3270054,15.0870016 42.247,14.763 C41.2929952,14.4929987 40.514503,14.2185014 39.9115,13.9395 C39.308497,13.6604986 38.7955021,13.2510027 38.3725,12.711 C37.9494979,12.1709973 37.738,11.4690043 37.738,10.605 C37.738,9.27299334 38.2239951,8.27400333 39.196,7.608 C40.1680049,6.94199667 41.3829927,6.609 42.841,6.609 C43.7050043,6.609 44.5554958,6.73049879 45.3925,6.9735 C46.2295042,7.21650121 46.9539969,7.54499793 47.566,7.959 L46.648,9.876 Z M51.265,6.717 L53.776,6.717 L53.776,21 L51.265,21 L51.265,6.717 Z M52.507,1.02 C52.9570023,1.02 53.3304985,1.17299847 53.6275,1.479 C53.9245015,1.78500153 54.073,2.17199766 54.073,2.64 C54.073,3.10800234 53.9245015,3.49499847 53.6275,3.801 C53.3304985,4.10700153 52.9570023,4.26 52.507,4.26 C52.0569977,4.26 51.6835015,4.10700153 51.3865,3.801 C51.0894985,3.49499847 50.941,3.10800234 50.941,2.64 C50.941,2.17199766 51.0894985,1.78500153 51.3865,1.479 C51.6835015,1.17299847 52.0569977,1.02 52.507,1.02 Z M65.98,2.1 L68.572,2.1 L68.572,18.651 L76.834,18.651 L76.834,21 L65.98,21 L65.98,2.1 Z M85.609,6.636 C87.8230111,6.636 89.4969943,7.28849347 90.631,8.5935 C91.7650057,9.89850653 92.332,11.7119884 92.332,14.034 C92.332,14.3940018 92.3230001,14.6639991 92.305,14.844 L81.019,14.844 C81.217001,16.1220064 81.7524956,17.1389962 82.6255,17.895 C83.4985044,18.6510038 84.5739936,19.029 85.852,19.029 C86.6980042,19.029 87.4854964,18.8760015 88.2145,18.57 C88.9435036,18.2639985 89.5779973,17.8320028 90.118,17.274 L91.495,18.705 C90.7929965,19.4610038 89.947005,20.0459979 88.957,20.46 C87.9669951,20.8740021 86.869006,21.081 85.663,21.081 C84.258993,21.081 83.0125054,20.779503 81.9235,20.1765 C80.8344946,19.573497 79.988503,18.7230055 79.3855,17.625 C78.782497,16.5269945 78.481,15.276007 78.481,13.872 C78.481,12.467993 78.782497,11.2215054 79.3855,10.1325 C79.988503,9.04349456 80.8299946,8.1885031 81.91,7.5675 C82.9900054,6.94649689 84.2229931,6.636 85.609,6.636 Z M90.064,12.9 C89.9919996,11.6039935 89.560004,10.5825037 88.768,9.8355 C87.975996,9.08849627 86.9320065,8.715 85.636,8.715 C84.3759937,8.715 83.3275042,9.09299622 82.4905,9.849 C81.6534958,10.6050038 81.1540008,11.6219936 80.992,12.9 L90.064,12.9 Z M93.385,6.717 L96.058,6.717 L100.351,18.516 L104.617,6.717 L107.155,6.717 L101.593,21 L98.974,21 L93.385,6.717 Z M115.255,6.636 C117.469011,6.636 119.142994,7.28849347 120.277,8.5935 C121.411006,9.89850653 121.978,11.7119884 121.978,14.034 C121.978,14.3940018 121.969,14.6639991 121.951,14.844 L110.665,14.844 C110.863001,16.1220064 111.398496,17.1389962 112.2715,17.895 C113.144504,18.6510038 114.219994,19.029 115.498,19.029 C116.344004,19.029 117.131496,18.8760015 117.8605,18.57 C118.589504,18.2639985 119.223997,17.8320028 119.764,17.274 L121.141,18.705 C120.438996,19.4610038 119.593005,20.0459979 118.603,20.46 C117.612995,20.8740021 116.515006,21.081 115.309,21.081 C113.904993,21.081 112.658505,20.779503 111.5695,20.1765 C110.480495,19.573497 109.634503,18.7230055 109.0315,17.625 C108.428497,16.5269945 108.127,15.276007 108.127,13.872 C108.127,12.467993 108.428497,11.2215054 109.0315,10.1325 C109.634503,9.04349456 110.475995,8.1885031 111.556,7.5675 C112.636005,6.94649689 113.868993,6.636 115.255,6.636 Z M119.71,12.9 C119.638,11.6039935 119.206004,10.5825037 118.414,9.8355 C117.621996,9.08849627 116.578006,8.715 115.282,8.715 C114.021994,8.715 112.973504,9.09299622 112.1365,9.849 C111.299496,10.6050038 110.800001,11.6219936 110.638,12.9 L119.71,12.9 Z M125.542,0.966 L128.053,0.966 L128.053,21 L125.542,21 L125.542,0.966 Z M130.807,2.1 L137.692,2.1 L137.692,21 L135.1,21 L135.1,4.449 L130.807,4.449 L130.807,2.1 Z M150.274,0.966 L152.785,0.966 L152.785,21 L150.274,21 L150.274,0.966 Z M157.834,6.717 L160.345,6.717 L160.345,21 L157.834,21 L157.834,6.717 Z M159.076,1.02 C159.526002,1.02 159.899499,1.17299847 160.1965,1.479 C160.493501,1.78500153 160.642,2.17199766 160.642,2.64 C160.642,3.10800234 160.493501,3.49499847 160.1965,3.801 C159.899499,4.10700153 159.526002,4.26 159.076,4.26 C158.625998,4.26 158.252501,4.10700153 157.9555,3.801 C157.658499,3.49499847 157.51,3.10800234 157.51,2.64 C157.51,2.17199766 157.658499,1.78500153 157.9555,1.479 C158.252501,1.17299847 158.625998,1.02 159.076,1.02 Z M165.232,6.717 L167.743,6.717 L167.743,21 L165.232,21 L165.232,6.717 Z M166.474,1.02 C166.924002,1.02 167.297499,1.17299847 167.5945,1.479 C167.891501,1.78500153 168.04,2.17199766 168.04,2.64 C168.04,3.10800234 167.891501,3.49499847 167.5945,3.801 C167.297499,4.10700153 166.924002,4.26 166.474,4.26 C166.023998,4.26 165.650501,4.10700153 165.3535,3.801 C165.056499,3.49499847 164.908,3.10800234 164.908,2.64 C164.908,2.17199766 165.056499,1.78500153 165.3535,1.479 C165.650501,1.17299847 166.023998,1.02 166.474,1.02 Z M182.62,21 L178.057,14.061 L175.276,16.95 L175.276,21 L172.765,21 L172.765,0.966 L175.276,0.966 L175.276,13.737 L182.188,6.717 L185.131,6.717 L179.812,12.252 L185.644,21 L182.62,21 Z M206.785,6.636 C208.423008,6.636 209.709995,7.13099505 210.646,8.121 C211.582005,9.11100495 212.05,10.4609915 212.05,12.171 L212.05,21 L209.512,21 L209.512,12.846 C209.512,11.639994 209.183503,10.6950034 208.5265,10.011 C207.869497,9.32699658 206.965006,8.985 205.813,8.985 C204.462993,9.02100018 203.401004,9.49799541 202.627,10.416 C201.852996,11.3340046 201.466,12.5129928 201.466,13.953 L201.466,21 L198.928,21 L198.928,12.846 C198.928,11.639994 198.604003,10.6950034 197.956,10.011 C197.307997,9.32699658 196.399006,8.985 195.229,8.985 C193.878993,9.02100018 192.812504,9.49799541 192.0295,10.416 C191.246496,11.3340046 190.855,12.5129928 190.855,13.953 L190.855,21 L188.344,21 L188.344,6.717 L190.855,6.717 L190.855,9.714 C191.791005,7.69798992 193.563987,6.67200018 196.174,6.636 C197.488007,6.636 198.581496,6.95099685 199.4545,7.581 C200.327504,8.21100315 200.916998,9.09299433 201.223,10.227 C202.105004,7.86898821 203.958986,6.67200018 206.785,6.636 Z M222.256,6.636 C224.470011,6.636 226.143994,7.28849347 227.278,8.5935 C228.412006,9.89850653 228.979,11.7119884 228.979,14.034 C228.979,14.3940018 228.97,14.6639991 228.952,14.844 L217.666,14.844 C217.864001,16.1220064 218.399496,17.1389962 219.2725,17.895 C220.145504,18.6510038 221.220994,19.029 222.499,19.029 C223.345004,19.029 224.132496,18.8760015 224.8615,18.57 C225.590504,18.2639985 226.224997,17.8320028 226.765,17.274 L228.142,18.705 C227.439996,19.4610038 226.594005,20.0459979 225.604,20.46 C224.613995,20.8740021 223.516006,21.081 222.31,21.081 C220.905993,21.081 219.659505,20.779503 218.5705,20.1765 C217.481495,19.573497 216.635503,18.7230055 216.0325,17.625 C215.429497,16.5269945 215.128,15.276007 215.128,13.872 C215.128,12.467993 215.429497,11.2215054 216.0325,10.1325 C216.635503,9.04349456 217.476995,8.1885031 218.557,7.5675 C219.637005,6.94649689 220.869993,6.636 222.256,6.636 Z M226.711,12.9 C226.639,11.6039935 226.207004,10.5825037 225.415,9.8355 C224.622996,9.08849627 223.579006,8.715 222.283,8.715 C221.022994,8.715 219.974504,9.09299622 219.1375,9.849 C218.300496,10.6050038 217.801001,11.6219936 217.639,12.9 L226.711,12.9 Z M232.408,6.717 L234.919,6.717 L234.919,21 L232.408,21 L232.408,6.717 Z M233.65,1.02 C234.100002,1.02 234.473499,1.17299847 234.7705,1.479 C235.067501,1.78500153 235.216,2.17199766 235.216,2.64 C235.216,3.10800234 235.067501,3.49499847 234.7705,3.801 C234.473499,4.10700153 234.100002,4.26 233.65,4.26 C233.199998,4.26 232.826501,4.10700153 232.5295,3.801 C232.232499,3.49499847 232.084,3.10800234 232.084,2.64 C232.084,2.17199766 232.232499,1.78500153 232.5295,1.479 C232.826501,1.17299847 233.199998,1.02 233.65,1.02 Z M253.117,0.966 L253.117,21 L250.606,21 L250.606,18.165 C250.065997,19.1190048 249.341505,19.8524974 248.4325,20.3655 C247.523495,20.8785026 246.466006,21.135 245.26,21.135 C243.909993,21.135 242.717505,20.8245031 241.6825,20.2035 C240.647495,19.5824969 239.842003,18.7185055 239.266,17.6115 C238.689997,16.5044945 238.402,15.2400071 238.402,13.818 C238.402,12.413993 238.689997,11.1675054 239.266,10.0785 C239.842003,8.98949455 240.647495,8.13900306 241.6825,7.527 C242.717505,6.91499694 243.900993,6.609 245.233,6.609 C246.457006,6.609 247.527995,6.86099748 248.446,7.365 C249.364005,7.86900252 250.083997,8.59799523 250.606,9.552 L250.606,0.966 L253.117,0.966 Z M245.773,18.975 C246.709005,18.975 247.541496,18.7590022 248.2705,18.327 C248.999504,17.8949978 249.570998,17.2920039 249.985,16.518 C250.399002,15.7439961 250.606,14.8710049 250.606,13.899 C250.606,12.9089951 250.399002,12.0270039 249.985,11.253 C249.570998,10.4789961 248.999504,9.87600216 248.2705,9.444 C247.541496,9.01199784 246.709005,8.796 245.773,8.796 C244.836995,8.796 244.004504,9.01649779 243.2755,9.4575 C242.546496,9.8985022 241.975002,10.5059961 241.561,11.28 C241.146998,12.0540039 240.94,12.9269951 240.94,13.899 C240.94,14.8710049 241.146998,15.7439961 241.561,16.518 C241.975002,17.2920039 242.546496,17.8949978 243.2755,18.327 C244.004504,18.7590022 244.836995,18.975 245.773,18.975 Z" id="Uusi-Level1-liikmeid-Copy" fill="#D0021B"></path>
        </g>
    </g>
</svg>