<?xml version="1.0" encoding="UTF-8"?>
<svg width="277px" height="224px" viewBox="0 0 277 224" version="1.1" xmlns="http://www.w3.org/2000/svg" xmlns:xlink="http://www.w3.org/1999/xlink">
    <!-- Generator: Sketch 48.2 (47327) - http://www.bohemiancoding.com/sketch -->
    <title>stats2</title>
    <desc>Created with Sketch.</desc>
    <defs></defs>
    <g id="Page-1" stroke="none" stroke-width="1" fill="none" fill-rule="evenodd">
        <g id="Group-4">
            <path d="M74.0265,220.651 L74.0265,223 L60.3645,223 L60.3645,221.002 L67.6815,213.415 C68.473504,212.622996 69.1034977,211.835504 69.5715,211.0525 C70.0395023,210.269496 70.2735,209.590003 70.2735,209.014 C70.2735,208.167996 69.9450033,207.502002 69.288,207.016 C68.6309967,206.529998 67.7265058,206.287 66.5745,206.287 C65.6924956,206.287 64.7745048,206.489498 63.8205,206.8945 C62.8664952,207.299502 62.0025039,207.861996 61.2285,208.582 L60.1215,206.611 C61.1475051,205.782996 62.2409942,205.139502 63.402,204.6805 C64.5630058,204.221498 65.7284942,203.992 66.8985,203.992 C68.7345092,203.992 70.2059945,204.414996 71.313,205.261 C72.4200055,206.107004 72.9735,207.240993 72.9735,208.663 C72.9735,210.337008 71.8035117,212.388988 69.4635,214.819 L63.7665,220.651 L74.0265,220.651 Z M75.1065,204.1 L81.9915,204.1 L81.9915,223 L79.3995,223 L79.3995,206.449 L75.1065,206.449 L75.1065,204.1 Z M99.0285,207.34 C98.434497,206.961998 97.7550038,206.669501 96.99,206.4625 C96.2249962,206.255499 95.4735037,206.152 94.7355,206.152 C92.9174909,206.152 91.5225049,206.781994 90.5505,208.042 C89.5784951,209.302006 89.0925,211.029989 89.0925,213.226 C89.0925,213.568002 89.1014999,213.828999 89.1195,214.009 C89.5875023,212.982995 90.2894953,212.200003 91.2255,211.66 C92.1615047,211.119997 93.2864934,210.85 94.6005,210.85 C96.4905094,210.85 97.9799946,211.389995 99.069,212.47 C100.158005,213.550005 100.7025,215.007991 100.7025,216.844 C100.7025,218.122006 100.432503,219.233495 99.8925,220.1785 C99.3524973,221.123505 98.587505,221.852497 97.5975,222.3655 C96.6074951,222.878503 95.4555066,223.135 94.1415,223.135 C92.5754922,223.135 91.2210057,222.775004 90.078,222.055 C88.9349943,221.334996 88.062003,220.286507 87.459,218.9095 C86.855997,217.532493 86.5545,215.88101 86.5545,213.955 C86.5545,211.95699 86.8829967,210.206508 87.54,208.7035 C88.1970033,207.200492 89.123994,206.039504 90.321,205.2205 C91.518006,204.401496 92.9264919,203.992 94.5465,203.992 C95.4465045,203.992 96.395995,204.117999 97.395,204.37 C98.394005,204.622001 99.2804961,204.954998 100.0545,205.369 L99.0285,207.34 Z M94.1415,212.929 C93.2234954,212.929 92.4225034,213.113498 91.7385,213.4825 C91.0544966,213.851502 90.5280018,214.341997 90.159,214.954 C89.7899982,215.566003 89.6144999,216.231996 89.6325,216.952 C89.6144999,217.582003 89.7674984,218.193997 90.0915,218.788 C90.4155016,219.382003 90.9059967,219.876998 91.563,220.273 C92.2200033,220.669002 93.0254952,220.867 93.9795,220.867 C95.2755065,220.867 96.3149961,220.507004 97.098,219.787 C97.8810039,219.066996 98.2725,218.077006 98.2725,216.817 C98.2725,215.628994 97.8990037,214.684004 97.152,213.982 C96.4049963,213.279996 95.4015063,212.929 94.1415,212.929 Z M109.3425,204.1 L116.2275,204.1 L116.2275,223 L113.6355,223 L113.6355,206.449 L109.3425,206.449 L109.3425,204.1 Z M127.7025,211.147 C129.088507,211.147 130.307995,211.389998 131.361,211.876 C132.414005,212.362002 133.223997,213.036996 133.791,213.901 C134.358003,214.765004 134.6415,215.736995 134.6415,216.817 C134.6415,218.077006 134.349003,219.183995 133.764,220.138 C133.178997,221.092005 132.346505,221.829997 131.2665,222.352 C130.186495,222.874003 128.935507,223.135 127.5135,223.135 C126.397494,223.135 125.223006,222.941502 123.99,222.5545 C122.756994,222.167498 121.654505,221.650003 120.6825,221.002 L121.7355,218.923 C122.545504,219.535003 123.436495,220.002998 124.4085,220.327 C125.380505,220.651002 126.334495,220.813 127.2705,220.813 C128.692507,220.813 129.817496,220.471003 130.6455,219.787 C131.473504,219.102997 131.8875,218.176006 131.8875,217.006 C131.8875,215.907995 131.473504,215.048503 130.6455,214.4275 C129.817496,213.806497 128.638508,213.496 127.1085,213.496 C126.550497,213.496 125.740505,213.532 124.6785,213.604 C123.616495,213.676 122.761503,213.765999 122.1135,213.874 L122.1135,204.1 L133.8585,204.1 L133.8585,206.449 L124.5435,206.449 L124.5435,211.255 C125.389504,211.183 126.442494,211.147 127.7025,211.147 Z M144.3615,203.992 C146.26951,203.992 147.772495,204.419496 148.8705,205.2745 C149.968505,206.129504 150.5175,207.303993 150.5175,208.798 C150.5175,209.734005 150.261003,210.557496 149.748,211.2685 C149.234997,211.979504 148.519505,212.523998 147.6015,212.902 C148.807506,213.280002 149.752497,213.887496 150.4365,214.7245 C151.120503,215.561504 151.4625,216.555994 151.4625,217.708 C151.4625,219.382008 150.828006,220.704995 149.559,221.677 C148.289994,222.649005 146.566511,223.135 144.3885,223.135 C142.210489,223.135 140.487006,222.653505 139.218,221.6905 C137.948994,220.727495 137.3145,219.418008 137.3145,217.762 C137.3145,216.591994 137.665496,215.584004 138.3675,214.738 C139.069504,213.891996 140.041494,213.280002 141.2835,212.902 C140.311495,212.487998 139.560003,211.925504 139.029,211.2145 C138.497997,210.503496 138.2325,209.671005 138.2325,208.717 C138.2325,207.258993 138.781495,206.107004 139.8795,205.261 C140.977505,204.414996 142.471491,203.992 144.3615,203.992 Z M144.3885,205.882 C143.146494,205.882 142.179003,206.151997 141.486,206.692 C140.792997,207.232003 140.4465,207.978995 140.4465,208.933 C140.4465,209.905005 140.792997,210.660997 141.486,211.201 C142.179003,211.741003 143.146494,212.011 144.3885,212.011 C145.630506,212.011 146.593497,211.741003 147.2775,211.201 C147.961503,210.660997 148.3035,209.905005 148.3035,208.933 C148.3035,207.978995 147.961503,207.232003 147.2775,206.692 C146.593497,206.151997 145.630506,205.882 144.3885,205.882 Z M144.3615,214.063 C142.921493,214.063 141.796504,214.364497 140.9865,214.9675 C140.176496,215.570503 139.7715,216.402995 139.7715,217.465 C139.7715,218.599006 140.176496,219.480997 140.9865,220.111 C141.796504,220.741003 142.930493,221.056 144.3885,221.056 C145.828507,221.056 146.957996,220.741003 147.777,220.111 C148.596004,219.480997 149.0055,218.608006 149.0055,217.492 C149.0055,216.429995 148.596004,215.593003 147.777,214.981 C146.957996,214.368997 145.819507,214.063 144.3615,214.063 Z M170.2545,211.876 C169.660497,211.515998 169.008004,211.228001 168.297,211.012 C167.585996,210.795999 166.906503,210.688 166.2585,210.688 C165.502496,210.688 164.895002,210.827499 164.436,211.1065 C163.976998,211.385501 163.7475,211.812997 163.7475,212.389 C163.7475,212.965003 164.003997,213.401499 164.517,213.6985 C165.030003,213.995501 165.808495,214.296998 166.8525,214.603 C167.842505,214.891001 168.652497,215.178999 169.2825,215.467 C169.912503,215.755001 170.447998,216.177997 170.889,216.736 C171.330002,217.294003 171.5505,218.031995 171.5505,218.95 C171.5505,220.300007 171.042005,221.325996 170.025,222.028 C169.007995,222.730004 167.743508,223.081 166.2315,223.081 C165.169495,223.081 164.139005,222.910002 163.14,222.568 C162.140995,222.225998 161.299503,221.740003 160.6155,221.11 L161.5605,219.274 C162.154503,219.814003 162.887996,220.245998 163.761,220.57 C164.634004,220.894002 165.484496,221.056 166.3125,221.056 C167.140504,221.056 167.806497,220.903002 168.3105,220.597 C168.814503,220.290998 169.0665,219.823003 169.0665,219.193 C169.0665,218.544997 168.801003,218.059002 168.27,217.735 C167.738997,217.410998 166.933505,217.087002 165.8535,216.763 C164.899495,216.492999 164.121003,216.218501 163.518,215.9395 C162.914997,215.660499 162.402002,215.251003 161.979,214.711 C161.555998,214.170997 161.3445,213.469004 161.3445,212.605 C161.3445,211.272993 161.830495,210.274003 162.8025,209.608 C163.774505,208.941997 164.989493,208.609 166.4475,208.609 C167.311504,208.609 168.161996,208.730499 168.999,208.9735 C169.836004,209.216501 170.560497,209.544998 171.1725,209.959 L170.2545,211.876 Z M180.8115,208.636 C182.233507,208.636 183.497994,208.941997 184.605,209.554 C185.712006,210.166003 186.575997,211.016495 187.197,212.1055 C187.818003,213.194505 188.1285,214.440993 188.1285,215.845 C188.1285,217.249007 187.818003,218.499995 187.197,219.598 C186.575997,220.696005 185.712006,221.550997 184.605,222.163 C183.497994,222.775003 182.233507,223.081 180.8115,223.081 C179.371493,223.081 178.098006,222.775003 176.991,222.163 C175.883994,221.550997 175.020003,220.700505 174.399,219.6115 C173.777997,218.522495 173.4675,217.267007 173.4675,215.845 C173.4675,214.440993 173.777997,213.194505 174.399,212.1055 C175.020003,211.016495 175.883994,210.166003 176.991,209.554 C178.098006,208.941997 179.371493,208.636 180.8115,208.636 Z M180.8115,210.823 C179.875495,210.823 179.043004,211.038998 178.314,211.471 C177.584996,211.903002 177.018002,212.501496 176.613,213.2665 C176.207998,214.031504 176.0055,214.899995 176.0055,215.872 C176.0055,216.862005 176.207998,217.743996 176.613,218.518 C177.018002,219.292004 177.584996,219.890498 178.314,220.3135 C179.043004,220.736502 179.875495,220.948 180.8115,220.948 C181.729505,220.948 182.552996,220.736502 183.282,220.3135 C184.011004,219.890498 184.577998,219.292004 184.983,218.518 C185.388002,217.743996 185.5905,216.862005 185.5905,215.872 C185.5905,214.899995 185.388002,214.031504 184.983,213.2665 C184.577998,212.501496 184.011004,211.903002 183.282,211.471 C182.552996,211.038998 181.729505,210.823 180.8115,210.823 Z M184.9695,203.29 C184.9695,204.244005 184.794002,205.031497 184.443,205.6525 C184.091998,206.273503 183.538504,206.584 182.7825,206.584 C182.404498,206.584 182.049002,206.512001 181.716,206.368 C181.382998,206.223999 180.991502,206.008001 180.5415,205.72 C180.217498,205.521999 179.961001,205.378 179.772,205.288 C179.582999,205.198 179.407501,205.153 179.2455,205.153 C178.669497,205.153 178.3815,205.593996 178.3815,206.476 L176.6265,206.476 C176.6265,205.521995 176.801998,204.734503 177.153,204.1135 C177.504002,203.492497 178.057496,203.182 178.8135,203.182 C179.191502,203.182 179.537998,203.249499 179.853,203.3845 C180.168002,203.519501 180.568498,203.730999 181.0545,204.019 C181.378502,204.217001 181.634999,204.361 181.824,204.451 C182.013001,204.541 182.188499,204.586 182.3505,204.586 C182.926503,204.586 183.2145,204.154004 183.2145,203.29 L184.9695,203.29 Z M199.5765,208.636 C201.250508,208.636 202.564495,209.126495 203.5185,210.1075 C204.472505,211.088505 204.9495,212.442991 204.9495,214.171 L204.9495,223 L202.4385,223 L202.4385,214.846 C202.4385,213.639994 202.101003,212.699503 201.426,212.0245 C200.750997,211.349497 199.819506,211.012 198.6315,211.012 C197.353494,211.03 196.314004,211.439496 195.513,212.2405 C194.711996,213.041504 194.257501,214.080994 194.1495,215.359 L194.1495,223 L191.6385,223 L191.6385,208.717 L194.1495,208.717 L194.1495,211.741 C195.103505,209.70699 196.912487,208.672 199.5765,208.636 Z M218.1525,223 L218.1525,221.002 C217.090495,222.406007 215.425511,223.108 213.1575,223.108 C212.167495,223.108 211.299004,222.919002 210.552,222.541 C209.804996,222.162998 209.229002,221.641003 208.824,220.975 C208.418998,220.308997 208.2165,219.562004 208.2165,218.734 C208.2165,217.455994 208.688995,216.443504 209.634,215.6965 C210.579005,214.949496 211.897492,214.567 213.5895,214.549 L218.1255,214.549 L218.1255,213.874 C218.1255,212.865995 217.815003,212.087503 217.194,211.5385 C216.572997,210.989497 215.668506,210.715 214.4805,210.715 C213.040493,210.715 211.573507,211.227995 210.0795,212.254 L209.0265,210.526 C210.052505,209.859997 211.001996,209.378501 211.875,209.0815 C212.748004,208.784499 213.787494,208.636 214.9935,208.636 C216.775509,208.636 218.152495,209.072496 219.1245,209.9455 C220.096505,210.818504 220.5915,212.037992 220.6095,213.604 L220.6365,223 L218.1525,223 Z M213.6705,221.029 C214.840506,221.029 215.834996,220.745503 216.654,220.1785 C217.473004,219.611497 217.963499,218.860005 218.1255,217.924 L218.1255,216.493 L213.9405,216.493 C212.806494,216.493 211.965003,216.663998 211.416,217.006 C210.866997,217.348002 210.5925,217.887996 210.5925,218.626 C210.5925,219.364004 210.871497,219.948998 211.4295,220.381 C211.987503,220.813002 212.734495,221.029 213.6705,221.029 Z" id="216-158-sõna-copy" fill="#FBF5F5"></path>
            <path d="M12.565,136.896 C15.6450154,139.154678 19.0843143,140.874327 22.883,142.055 C26.6816857,143.235673 30.6343128,143.826 34.741,143.826 C42.9543744,143.826 49.1656456,141.336358 53.375,136.357 C57.5843544,131.377642 59.5863344,124.370712 59.381,115.336 C53.9396395,123.138706 45.5723898,127.04 34.279,127.04 C27.4002989,127.04 21.394359,125.577015 16.261,122.651 C11.127641,119.724985 7.14934745,115.61836 4.326,110.331 C1.50265255,105.04364 0.091,98.9093682 0.091,91.928 C0.091,84.4332959 1.73365024,77.8883613 5.019,72.293 C8.30434976,66.6976387 12.9243036,62.3856818 18.879,59.357 C24.8336964,56.3283182 31.7636271,54.814 39.669,54.814 C49.1143806,54.814 57.2762989,56.9699784 64.155,61.282 C71.0337011,65.5940216 76.3209815,71.75396 80.017,79.762 C83.7130185,87.77004 85.561,97.2666117 85.561,108.252 C85.561,119.648057 83.5333536,129.657957 79.478,138.282 C75.4226464,146.906043 69.699037,153.553643 62.307,158.225 C54.914963,162.896357 46.2910493,165.232 36.435,165.232 C30.4803036,165.232 24.4230308,164.410675 18.263,162.768 C12.1029692,161.125325 6.76435592,158.969347 2.247,156.3 L12.565,136.896 Z M40.747,76.99 C35.9216425,76.99 32.1743467,78.2989869 29.505,80.917 C26.8356533,83.5350131 25.501,87.2566425 25.501,92.082 C25.501,96.7020231 26.7843205,100.320987 29.351,102.939 C31.9176795,105.557013 35.5623097,106.866 40.285,106.866 C45.418359,106.866 49.3966525,105.454347 52.22,102.631 C55.0433475,99.8076526 56.455,96.1373559 56.455,91.62 C56.455,87.4106456 55.1203467,83.9200139 52.451,81.148 C49.7816533,78.3759861 45.880359,76.99 40.747,76.99 Z M181.349,141.362 L181.349,164 L99.113,164 L98.959,145.366 L138.229,105.018 C141.309015,101.835317 143.824324,98.6526826 145.775,95.47 C147.725676,92.2873174 148.701,89.566678 148.701,87.308 C148.701,84.3306518 147.623011,82.0463413 145.467,80.455 C143.310989,78.8636587 140.282353,78.068 136.381,78.068 C132.068978,78.068 127.26936,79.2743213 121.982,81.687 C116.69464,84.0996787 111.587025,87.4619784 106.659,91.774 L95.879,70.984 C110.765741,60.2039461 125.703592,54.814 140.693,54.814 C147.879703,54.814 154.321972,55.9946549 160.02,58.356 C165.718028,60.7173451 170.183984,64.0539784 173.418,68.366 C176.652016,72.6780216 178.269,77.6059723 178.269,83.15 C178.269,88.6940277 176.446685,94.4176372 172.802,100.321 C169.157315,106.224363 163.998367,112.512633 157.325,119.186 L135.303,141.362 L181.349,141.362 Z M232.939,54.814 C244.540391,54.814 253.780299,57.4576402 260.659,62.745 C267.537701,68.0323598 270.977,75.1419553 270.977,84.074 C270.977,88.5913559 269.822012,92.8263136 267.512,96.779 C265.201988,100.731686 262.096353,103.888655 258.195,106.25 C263.841695,108.816679 268.30765,112.538309 271.593,117.415 C274.87835,122.291691 276.521,127.707304 276.521,133.662 C276.521,140.027365 274.750018,145.596976 271.208,150.371 C267.665982,155.145024 262.6097,158.81532 256.039,161.382 C249.4683,163.94868 241.81971,165.232 233.093,165.232 C224.36629,165.232 216.743366,163.94868 210.224,161.382 C203.704634,158.81532 198.648351,155.196357 195.055,150.525 C191.461649,145.853643 189.665,140.386698 189.665,134.124 C189.665,128.066636 191.461649,122.548358 195.055,117.569 C198.648351,112.589642 203.422304,108.816679 209.377,106.25 C205.064978,103.683321 201.625679,100.346687 199.059,96.24 C196.492321,92.1333128 195.209,87.8213559 195.209,83.304 C195.209,77.5546379 196.748985,72.5240216 199.829,68.212 C202.909015,63.8999784 207.297972,60.5890116 212.996,58.279 C218.694028,55.9689884 225.341629,54.814 232.939,54.814 Z M233.093,73.756 C228.472977,73.756 224.905346,74.7826564 222.39,76.836 C219.874654,78.8893436 218.617,81.8153143 218.617,85.614 C218.617,89.3100185 219.874654,92.15899 222.39,94.161 C224.905346,96.16301 228.472977,97.164 233.093,97.164 C237.81569,97.164 241.408988,96.16301 243.873,94.161 C246.337012,92.15899 247.569,89.3100185 247.569,85.614 C247.569,81.8153143 246.337012,78.8893436 243.873,76.836 C241.408988,74.7826564 237.81569,73.756 233.093,73.756 Z M233.093,117.8 C227.651639,117.8 223.468015,118.954988 220.542,121.265 C217.615985,123.575012 216.153,126.885978 216.153,131.198 C216.153,135.510022 217.615985,138.820988 220.542,141.131 C223.468015,143.441012 227.651639,144.596 233.093,144.596 C238.534361,144.596 242.743652,143.441012 245.721,141.131 C248.698348,138.820988 250.187,135.510022 250.187,131.198 C250.187,126.885978 248.698348,123.575012 245.721,121.265 C242.743652,118.954988 238.534361,117.8 233.093,117.8 Z" id="928-copy" fill="#FBF5F5"></path>
            <path d="M93.2495,1.1 C95.6075118,1.1 97.4299936,1.65799442 98.717,2.774 C100.004006,3.89000558 100.6475,5.45598992 100.6475,7.472 C100.6475,9.57801053 99.9995065,11.2114942 98.7035,12.3725 C97.4074935,13.5335058 95.5895117,14.114 93.2495,14.114 L88.5515,14.114 L88.5515,20 L85.9595,20 L85.9595,1.1 L93.2495,1.1 Z M93.1415,11.765 C94.7615081,11.765 96.0034957,11.4095036 96.8675,10.6985 C97.7315043,9.98749645 98.1635,8.93900693 98.1635,7.553 C98.1635,6.20299325 97.7315043,5.18150346 96.8675,4.4885 C96.0034957,3.79549653 94.7615081,3.449 93.1415,3.449 L88.5515,3.476 L88.5515,11.765 L93.1415,11.765 Z M109.7735,5.636 C111.195507,5.636 112.459994,5.94199694 113.567,6.554 C114.674006,7.16600306 115.537997,8.01649456 116.159,9.1055 C116.780003,10.1945054 117.0905,11.440993 117.0905,12.845 C117.0905,14.249007 116.780003,15.4999945 116.159,16.598 C115.537997,17.6960055 114.674006,18.5509969 113.567,19.163 C112.459994,19.7750031 111.195507,20.081 109.7735,20.081 C108.333493,20.081 107.060006,19.7750031 105.953,19.163 C104.845994,18.5509969 103.982003,17.7005054 103.361,16.6115 C102.739997,15.5224946 102.4295,14.2670071 102.4295,12.845 C102.4295,11.440993 102.739997,10.1945054 103.361,9.1055 C103.982003,8.01649456 104.845994,7.16600306 105.953,6.554 C107.060006,5.94199694 108.333493,5.636 109.7735,5.636 Z M109.7735,7.823 C108.837495,7.823 108.005004,8.03899784 107.276,8.471 C106.546996,8.90300216 105.980002,9.50149618 105.575,10.2665 C105.169998,11.0315038 104.9675,11.8999951 104.9675,12.872 C104.9675,13.862005 105.169998,14.7439961 105.575,15.518 C105.980002,16.2920039 106.546996,16.8904979 107.276,17.3135 C108.005004,17.7365021 108.837495,17.948 109.7735,17.948 C110.691505,17.948 111.514996,17.7365021 112.244,17.3135 C112.973004,16.8904979 113.539998,16.2920039 113.945,15.518 C114.350002,14.7439961 114.5525,13.862005 114.5525,12.872 C114.5525,11.8999951 114.350002,11.0315038 113.945,10.2665 C113.539998,9.50149618 112.973004,8.90300216 112.244,8.471 C111.514996,8.03899784 110.691505,7.823 109.7735,7.823 Z M128.4035,8.876 C127.809497,8.5159982 127.157004,8.22800108 126.446,8.012 C125.734996,7.79599892 125.055503,7.688 124.4075,7.688 C123.651496,7.688 123.044002,7.8274986 122.585,8.1065 C122.125998,8.3855014 121.8965,8.81299712 121.8965,9.389 C121.8965,9.96500288 122.152997,10.4014985 122.666,10.6985 C123.179003,10.9955015 123.957495,11.2969985 125.0015,11.603 C125.991505,11.8910014 126.801497,12.1789986 127.4315,12.467 C128.061503,12.7550014 128.596998,13.1779972 129.038,13.736 C129.479002,14.2940028 129.6995,15.0319954 129.6995,15.95 C129.6995,17.3000067 129.191005,18.3259965 128.174,19.028 C127.156995,19.7300035 125.892508,20.081 124.3805,20.081 C123.318495,20.081 122.288005,19.9100017 121.289,19.568 C120.289995,19.2259983 119.448503,18.7400032 118.7645,18.11 L119.7095,16.274 C120.303503,16.8140027 121.036996,17.2459984 121.91,17.57 C122.783004,17.8940016 123.633496,18.056 124.4615,18.056 C125.289504,18.056 125.955497,17.9030015 126.4595,17.597 C126.963503,17.2909985 127.2155,16.8230031 127.2155,16.193 C127.2155,15.5449968 126.950003,15.0590016 126.419,14.735 C125.887997,14.4109984 125.082505,14.0870016 124.0025,13.763 C123.048495,13.4929987 122.270003,13.2185014 121.667,12.9395 C121.063997,12.6604986 120.551002,12.2510027 120.128,11.711 C119.704998,11.1709973 119.4935,10.4690043 119.4935,9.605 C119.4935,8.27299334 119.979495,7.27400333 120.9515,6.608 C121.923505,5.94199667 123.138493,5.609 124.5965,5.609 C125.460504,5.609 126.310996,5.73049879 127.148,5.9735 C127.985004,6.21650121 128.709497,6.54499793 129.3215,6.959 L128.4035,8.876 Z M140.6885,19.055 C139.590495,19.7570035 138.474506,20.108 137.3405,20.108 C136.206494,20.108 135.288504,19.7705034 134.5865,19.0955 C133.884496,18.4204966 133.5335,17.3990068 133.5335,16.031 L133.5335,8.12 L131.5085,8.12 L131.5085,6.203 L133.5335,6.203 L133.5335,2.369 L136.0715,2.369 L136.0715,6.203 L140.4455,6.203 L140.4455,8.12 L136.0715,8.12 L136.0715,15.572 C136.0715,16.364004 136.215499,16.9309983 136.5035,17.273 C136.791501,17.6150017 137.223497,17.786 137.7995,17.786 C138.483503,17.786 139.221496,17.5610023 140.0135,17.111 L140.6885,19.055 Z M143.7395,5.717 L146.2505,5.717 L146.2505,20 L143.7395,20 L143.7395,5.717 Z M144.9815,0.02 C145.431502,0.02 145.804999,0.17299847 146.102,0.479 C146.399001,0.78500153 146.5475,1.17199766 146.5475,1.64 C146.5475,2.10800234 146.399001,2.49499847 146.102,2.801 C145.804999,3.10700153 145.431502,3.26 144.9815,3.26 C144.531498,3.26 144.158001,3.10700153 143.861,2.801 C143.563999,2.49499847 143.4155,2.10800234 143.4155,1.64 C143.4155,1.17199766 143.563999,0.78500153 143.861,0.479 C144.158001,0.17299847 144.531498,0.02 144.9815,0.02 Z M158.8055,19.055 C157.707495,19.7570035 156.591506,20.108 155.4575,20.108 C154.323494,20.108 153.405504,19.7705034 152.7035,19.0955 C152.001496,18.4204966 151.6505,17.3990068 151.6505,16.031 L151.6505,8.12 L149.6255,8.12 L149.6255,6.203 L151.6505,6.203 L151.6505,2.369 L154.1885,2.369 L154.1885,6.203 L158.5625,6.203 L158.5625,8.12 L154.1885,8.12 L154.1885,15.572 C154.1885,16.364004 154.332499,16.9309983 154.6205,17.273 C154.908501,17.6150017 155.340497,17.786 155.9165,17.786 C156.600503,17.786 157.338496,17.5610023 158.1305,17.111 L158.8055,19.055 Z M174.4925,5.717 L174.4925,20 L171.9545,20 L171.9545,16.976 C171.018495,19.0100102 169.254513,20.0449998 166.6625,20.081 C165.006492,20.081 163.710505,19.5905049 162.7745,18.6095 C161.838495,17.6284951 161.3705,16.2740086 161.3705,14.546 L161.3705,5.717 L163.9085,5.717 L163.9085,13.871 C163.9085,15.077006 164.236997,16.0174966 164.894,16.6925 C165.551003,17.3675034 166.455494,17.705 167.6075,17.705 C168.939507,17.6869999 169.996996,17.2145046 170.78,16.2875 C171.563004,15.3604954 171.9545,14.1770072 171.9545,12.737 L171.9545,5.717 L174.4925,5.717 Z M187.1825,8.876 C186.588497,8.5159982 185.936004,8.22800108 185.225,8.012 C184.513996,7.79599892 183.834503,7.688 183.1865,7.688 C182.430496,7.688 181.823002,7.8274986 181.364,8.1065 C180.904998,8.3855014 180.6755,8.81299712 180.6755,9.389 C180.6755,9.96500288 180.931997,10.4014985 181.445,10.6985 C181.958003,10.9955015 182.736495,11.2969985 183.7805,11.603 C184.770505,11.8910014 185.580497,12.1789986 186.2105,12.467 C186.840503,12.7550014 187.375998,13.1779972 187.817,13.736 C188.258002,14.2940028 188.4785,15.0319954 188.4785,15.95 C188.4785,17.3000067 187.970005,18.3259965 186.953,19.028 C185.935995,19.7300035 184.671508,20.081 183.1595,20.081 C182.097495,20.081 181.067005,19.9100017 180.068,19.568 C179.068995,19.2259983 178.227503,18.7400032 177.5435,18.11 L178.4885,16.274 C179.082503,16.8140027 179.815996,17.2459984 180.689,17.57 C181.562004,17.8940016 182.412496,18.056 183.2405,18.056 C184.068504,18.056 184.734497,17.9030015 185.2385,17.597 C185.742503,17.2909985 185.9945,16.8230031 185.9945,16.193 C185.9945,15.5449968 185.729003,15.0590016 185.198,14.735 C184.666997,14.4109984 183.861505,14.0870016 182.7815,13.763 C181.827495,13.4929987 181.049003,13.2185014 180.446,12.9395 C179.842997,12.6604986 179.330002,12.2510027 178.907,11.711 C178.483998,11.1709973 178.2725,10.4690043 178.2725,9.605 C178.2725,8.27299334 178.758495,7.27400333 179.7305,6.608 C180.702505,5.94199667 181.917493,5.609 183.3755,5.609 C184.239504,5.609 185.089996,5.73049879 185.927,5.9735 C186.764004,6.21650121 187.488497,6.54499793 188.1005,6.959 L187.1825,8.876 Z M191.7995,5.717 L194.3105,5.717 L194.3105,20 L191.7995,20 L191.7995,5.717 Z M193.0415,0.02 C193.491502,0.02 193.864999,0.17299847 194.162,0.479 C194.459001,0.78500153 194.6075,1.17199766 194.6075,1.64 C194.6075,2.10800234 194.459001,2.49499847 194.162,2.801 C193.864999,3.10700153 193.491502,3.26 193.0415,3.26 C192.591498,3.26 192.218001,3.10700153 191.921,2.801 C191.623999,2.49499847 191.4755,2.10800234 191.4755,1.64 C191.4755,1.17199766 191.623999,0.78500153 191.921,0.479 C192.218001,0.17299847 192.591498,0.02 193.0415,0.02 Z" id="Postitusi-Copy" fill="#D0021B"></path>
        </g>
    </g>
</svg>