<?xml version="1.0" encoding="UTF-8"?>
<svg width="226px" height="253px" viewBox="0 0 226 253" version="1.1" xmlns="http://www.w3.org/2000/svg" xmlns:xlink="http://www.w3.org/1999/xlink">
    <!-- Generator: Sketch 48.2 (47327) - http://www.bohemiancoding.com/sketch -->
    <title>stats3</title>
    <desc>Created with Sketch.</desc>
    <defs></defs>
    <g id="Page-1" stroke="none" stroke-width="1" fill="none" fill-rule="evenodd">
        <g id="Group-3">
            <path d="M0.573,205.1 L7.458,205.1 L7.458,224 L4.866,224 L4.866,207.449 L0.573,207.449 L0.573,205.1 Z M28.626,224 L28.626,222.002 C27.5639947,223.406007 25.8990113,224.108 23.631,224.108 C22.6409951,224.108 21.7725037,223.919002 21.0255,223.541 C20.2784963,223.162998 19.702502,222.641003 19.2975,221.975 C18.892498,221.308997 18.69,220.562004 18.69,219.734 C18.69,218.455994 19.1624953,217.443504 20.1075,216.6965 C21.0525047,215.949496 22.3709915,215.567 24.063,215.549 L28.599,215.549 L28.599,214.874 C28.599,213.865995 28.2885031,213.087503 27.6675,212.5385 C27.0464969,211.989497 26.1420059,211.715 24.954,211.715 C23.5139928,211.715 22.0470075,212.227995 20.553,213.254 L19.5,211.526 C20.5260051,210.859997 21.4754956,210.378501 22.3485,210.0815 C23.2215044,209.784499 24.260994,209.636 25.467,209.636 C27.2490089,209.636 28.6259951,210.072496 29.598,210.9455 C30.5700049,211.818504 31.0649999,213.037992 31.083,214.604 L31.11,224 L28.626,224 Z M24.144,222.029 C25.3140058,222.029 26.3084959,221.745503 27.1275,221.1785 C27.9465041,220.611497 28.4369992,219.860005 28.599,218.924 L28.599,217.493 L24.414,217.493 C23.2799943,217.493 22.4385027,217.663998 21.8895,218.006 C21.3404973,218.348002 21.066,218.887996 21.066,219.626 C21.066,220.364004 21.3449972,220.948998 21.903,221.381 C22.4610028,221.813002 23.2079953,222.029 24.144,222.029 Z M44.313,224 L44.313,222.002 C43.2509947,223.406007 41.5860113,224.108 39.318,224.108 C38.3279951,224.108 37.4595037,223.919002 36.7125,223.541 C35.9654963,223.162998 35.389502,222.641003 34.9845,221.975 C34.579498,221.308997 34.377,220.562004 34.377,219.734 C34.377,218.455994 34.8494953,217.443504 35.7945,216.6965 C36.7395047,215.949496 38.0579915,215.567 39.75,215.549 L44.286,215.549 L44.286,214.874 C44.286,213.865995 43.9755031,213.087503 43.3545,212.5385 C42.7334969,211.989497 41.8290059,211.715 40.641,211.715 C39.2009928,211.715 37.7340075,212.227995 36.24,213.254 L35.187,211.526 C36.2130051,210.859997 37.1624956,210.378501 38.0355,210.0815 C38.9085044,209.784499 39.947994,209.636 41.154,209.636 C42.9360089,209.636 44.3129951,210.072496 45.285,210.9455 C46.2570049,211.818504 46.7519999,213.037992 46.77,214.604 L46.797,224 L44.313,224 Z M39.831,222.029 C41.0010059,222.029 41.9954959,221.745503 42.8145,221.1785 C43.6335041,220.611497 44.1239992,219.860005 44.286,218.924 L44.286,217.493 L40.101,217.493 C38.9669943,217.493 38.1255027,217.663998 37.5765,218.006 C37.0274973,218.348002 36.753,218.887996 36.753,219.626 C36.753,220.364004 37.0319972,220.948998 37.59,221.381 C38.1480028,221.813002 38.8949953,222.029 39.831,222.029 Z M59.082,212.876 C58.487997,212.515998 57.8355036,212.228001 57.1245,212.012 C56.4134964,211.795999 55.7340032,211.688 55.086,211.688 C54.3299962,211.688 53.7225023,211.827499 53.2635,212.1065 C52.8044977,212.385501 52.575,212.812997 52.575,213.389 C52.575,213.965003 52.8314974,214.401499 53.3445,214.6985 C53.8575026,214.995501 54.6359948,215.296998 55.68,215.603 C56.670005,215.891001 57.4799969,216.178999 58.11,216.467 C58.7400032,216.755001 59.2754978,217.177997 59.7165,217.736 C60.1575022,218.294003 60.378,219.031995 60.378,219.95 C60.378,221.300007 59.8695051,222.325996 58.8525,223.028 C57.8354949,223.730004 56.5710076,224.081 55.059,224.081 C53.9969947,224.081 52.966505,223.910002 51.9675,223.568 C50.968495,223.225998 50.1270034,222.740003 49.443,222.11 L50.388,220.274 C50.982003,220.814003 51.7154956,221.245998 52.5885,221.57 C53.4615044,221.894002 54.3119959,222.056 55.14,222.056 C55.9680041,222.056 56.6339975,221.903002 57.138,221.597 C57.6420025,221.290998 57.894,220.823003 57.894,220.193 C57.894,219.544997 57.6285027,219.059002 57.0975,218.735 C56.5664973,218.410998 55.7610054,218.087002 54.681,217.763 C53.7269952,217.492999 52.948503,217.218501 52.3455,216.9395 C51.742497,216.660499 51.2295021,216.251003 50.8065,215.711 C50.3834979,215.170997 50.172,214.469004 50.172,213.605 C50.172,212.272993 50.6579951,211.274003 51.63,210.608 C52.6020049,209.941997 53.8169927,209.609 55.275,209.609 C56.1390043,209.609 56.9894958,209.730499 57.8265,209.9735 C58.6635042,210.216501 59.3879969,210.544998 60,210.959 L59.082,212.876 Z M71.367,223.055 C70.2689945,223.757004 69.1530057,224.108 68.019,224.108 C66.8849943,224.108 65.9670035,223.770503 65.265,223.0955 C64.5629965,222.420497 64.212,221.399007 64.212,220.031 L64.212,212.12 L62.187,212.12 L62.187,210.203 L64.212,210.203 L64.212,206.369 L66.75,206.369 L66.75,210.203 L71.124,210.203 L71.124,212.12 L66.75,212.12 L66.75,219.572 C66.75,220.364004 66.8939986,220.930998 67.182,221.273 C67.4700014,221.615002 67.9019971,221.786 68.478,221.786 C69.1620034,221.786 69.899996,221.561002 70.692,221.111 L71.367,223.055 Z M83.139,224 L83.139,222.002 C82.0769947,223.406007 80.4120113,224.108 78.144,224.108 C77.1539951,224.108 76.2855037,223.919002 75.5385,223.541 C74.7914963,223.162998 74.215502,222.641003 73.8105,221.975 C73.405498,221.308997 73.203,220.562004 73.203,219.734 C73.203,218.455994 73.6754953,217.443504 74.6205,216.6965 C75.5655047,215.949496 76.8839915,215.567 78.576,215.549 L83.112,215.549 L83.112,214.874 C83.112,213.865995 82.8015031,213.087503 82.1805,212.5385 C81.5594969,211.989497 80.6550059,211.715 79.467,211.715 C78.0269928,211.715 76.5600075,212.227995 75.066,213.254 L74.013,211.526 C75.0390051,210.859997 75.9884956,210.378501 76.8615,210.0815 C77.7345044,209.784499 78.773994,209.636 79.98,209.636 C81.7620089,209.636 83.1389951,210.072496 84.111,210.9455 C85.0830049,211.818504 85.5779999,213.037992 85.596,214.604 L85.623,224 L83.139,224 Z M78.657,222.029 C79.8270059,222.029 80.8214959,221.745503 81.6405,221.1785 C82.4595041,220.611497 82.9499992,219.860005 83.112,218.924 L83.112,217.493 L78.927,217.493 C77.7929943,217.493 76.9515027,217.663998 76.4025,218.006 C75.8534973,218.348002 75.579,218.887996 75.579,219.626 C75.579,220.364004 75.8579972,220.948998 76.416,221.381 C76.9740028,221.813002 77.7209953,222.029 78.657,222.029 Z M93.723,226.916 C94.119002,227.060001 94.5509977,227.15 95.019,227.186 C95.7030034,227.204 96.2249982,226.970002 96.585,226.484 C96.9450018,225.997998 97.125,225.287005 97.125,224.351 L97.125,209.717 L99.663,209.717 L99.663,224.702 C99.663,226.178007 99.3075036,227.316496 98.5965,228.1175 C97.8854964,228.918504 96.8820065,229.319 95.586,229.319 C94.7759959,229.319 93.9570041,229.157002 93.129,228.833 L93.723,226.916 Z M98.367,204.02 C98.8170022,204.02 99.1904985,204.172998 99.4875,204.479 C99.7845015,204.785002 99.933,205.171998 99.933,205.64 C99.933,206.108002 99.7845015,206.494998 99.4875,206.801 C99.1904985,207.107002 98.8170022,207.26 98.367,207.26 C97.9169978,207.26 97.5435015,207.107002 97.2465,206.801 C96.9494985,206.494998 96.801,206.108002 96.801,205.64 C96.801,205.171998 96.9494985,204.785002 97.2465,204.479 C97.5435015,204.172998 97.9169978,204.02 98.367,204.02 Z M113.001,224 L113.001,222.002 C111.938995,223.406007 110.274011,224.108 108.006,224.108 C107.015995,224.108 106.147504,223.919002 105.4005,223.541 C104.653496,223.162998 104.077502,222.641003 103.6725,221.975 C103.267498,221.308997 103.065,220.562004 103.065,219.734 C103.065,218.455994 103.537495,217.443504 104.4825,216.6965 C105.427505,215.949496 106.745992,215.567 108.438,215.549 L112.974,215.549 L112.974,214.874 C112.974,213.865995 112.663503,213.087503 112.0425,212.5385 C111.421497,211.989497 110.517006,211.715 109.329,211.715 C107.888993,211.715 106.422007,212.227995 104.928,213.254 L103.875,211.526 C104.901005,210.859997 105.850496,210.378501 106.7235,210.0815 C107.596504,209.784499 108.635994,209.636 109.842,209.636 C111.624009,209.636 113.000995,210.072496 113.973,210.9455 C114.945005,211.818504 115.44,213.037992 115.458,214.604 L115.485,224 L113.001,224 Z M108.519,222.029 C109.689006,222.029 110.683496,221.745503 111.5025,221.1785 C112.321504,220.611497 112.811999,219.860005 112.974,218.924 L112.974,217.493 L108.789,217.493 C107.654994,217.493 106.813503,217.663998 106.2645,218.006 C105.715497,218.348002 105.441,218.887996 105.441,219.626 C105.441,220.364004 105.719997,220.948998 106.278,221.381 C106.836003,221.813002 107.582995,222.029 108.519,222.029 Z M133.143,212.147 C134.529007,212.147 135.748495,212.389998 136.8015,212.876 C137.854505,213.362002 138.664497,214.036996 139.2315,214.901 C139.798503,215.765004 140.082,216.736995 140.082,217.817 C140.082,219.077006 139.789503,220.183995 139.2045,221.138 C138.619497,222.092005 137.787005,222.829997 136.707,223.352 C135.626995,223.874003 134.376007,224.135 132.954,224.135 C131.837994,224.135 130.663506,223.941502 129.4305,223.5545 C128.197494,223.167498 127.095005,222.650003 126.123,222.002 L127.176,219.923 C127.986004,220.535003 128.876995,221.002998 129.849,221.327 C130.821005,221.651002 131.774995,221.813 132.711,221.813 C134.133007,221.813 135.257996,221.471003 136.086,220.787 C136.914004,220.102997 137.328,219.176006 137.328,218.006 C137.328,216.907995 136.914004,216.048503 136.086,215.4275 C135.257996,214.806497 134.079008,214.496 132.549,214.496 C131.990997,214.496 131.181005,214.532 130.119,214.604 C129.056995,214.676 128.202003,214.765999 127.554,214.874 L127.554,205.1 L139.299,205.1 L139.299,207.449 L129.984,207.449 L129.984,212.255 C130.830004,212.183 131.882994,212.147 133.143,212.147 Z M158.658,209.636 C159.990007,209.636 161.177995,209.941997 162.222,210.554 C163.266005,211.166003 164.075997,212.020995 164.652,213.119 C165.228003,214.217005 165.516,215.476993 165.516,216.899 C165.516,218.303007 165.232503,219.549495 164.6655,220.6385 C164.098497,221.727505 163.297505,222.573497 162.2625,223.1765 C161.227495,223.779503 160.044007,224.081 158.712,224.081 C157.505994,224.081 156.444005,223.829003 155.526,223.325 C154.607995,222.820997 153.888003,222.101005 153.366,221.165 L153.366,229.238 L150.855,229.238 L150.855,209.717 L153.366,209.717 L153.366,212.552 C153.888003,211.615995 154.603495,210.896003 155.5125,210.392 C156.421505,209.887997 157.469994,209.636 158.658,209.636 Z M158.172,221.894 C159.090005,221.894 159.913496,221.678002 160.6425,221.246 C161.371504,220.813998 161.938498,220.211004 162.3435,219.437 C162.748502,218.662996 162.951,217.790005 162.951,216.818 C162.951,215.863995 162.744002,215.000004 162.33,214.226 C161.915998,213.451996 161.349004,212.849002 160.629,212.417 C159.908996,211.984998 159.090005,211.769 158.172,211.769 C157.253995,211.769 156.430504,211.984998 155.7015,212.417 C154.972496,212.849002 154.401002,213.451996 153.987,214.226 C153.572998,215.000004 153.366,215.863995 153.366,216.818 C153.366,217.808005 153.572998,218.685496 153.987,219.4505 C154.401002,220.215504 154.972496,220.813998 155.7015,221.246 C156.430504,221.678002 157.253995,221.894 158.172,221.894 Z M177.747,224 L177.747,222.002 C176.684995,223.406007 175.020011,224.108 172.752,224.108 C171.761995,224.108 170.893504,223.919002 170.1465,223.541 C169.399496,223.162998 168.823502,222.641003 168.4185,221.975 C168.013498,221.308997 167.811,220.562004 167.811,219.734 C167.811,218.455994 168.283495,217.443504 169.2285,216.6965 C170.173505,215.949496 171.491992,215.567 173.184,215.549 L177.72,215.549 L177.72,214.874 C177.72,213.865995 177.409503,213.087503 176.7885,212.5385 C176.167497,211.989497 175.263006,211.715 174.075,211.715 C172.634993,211.715 171.168007,212.227995 169.674,213.254 L168.621,211.526 C169.647005,210.859997 170.596496,210.378501 171.4695,210.0815 C172.342504,209.784499 173.381994,209.636 174.588,209.636 C176.370009,209.636 177.746995,210.072496 178.719,210.9455 C179.691005,211.818504 180.186,213.037992 180.204,214.604 L180.231,224 L177.747,224 Z M173.265,222.029 C174.435006,222.029 175.429496,221.745503 176.2485,221.1785 C177.067504,220.611497 177.557999,219.860005 177.72,218.924 L177.72,217.493 L173.535,217.493 C172.400994,217.493 171.559503,217.663998 171.0105,218.006 C170.461497,218.348002 170.187,218.887996 170.187,219.626 C170.187,220.364004 170.465997,220.948998 171.024,221.381 C171.582003,221.813002 172.328995,222.029 173.265,222.029 Z M171.996,204.182 C172.410002,204.182 172.751999,204.321499 173.022,204.6005 C173.292001,204.879501 173.427,205.234998 173.427,205.667 C173.427,206.081002 173.292001,206.427499 173.022,206.7065 C172.751999,206.985501 172.410002,207.125 171.996,207.125 C171.581998,207.125 171.240001,206.985501 170.97,206.7065 C170.699999,206.427499 170.565,206.081002 170.565,205.667 C170.565,205.234998 170.699999,204.879501 170.97,204.6005 C171.240001,204.321499 171.581998,204.182 171.996,204.182 Z M176.64,204.182 C177.054002,204.182 177.395999,204.321499 177.666,204.6005 C177.936001,204.879501 178.071,205.234998 178.071,205.667 C178.071,206.081002 177.936001,206.427499 177.666,206.7065 C177.395999,206.985501 177.054002,207.125 176.64,207.125 C176.225998,207.125 175.884001,206.985501 175.614,206.7065 C175.343999,206.427499 175.209,206.081002 175.209,205.667 C175.209,205.234998 175.343999,204.879501 175.614,204.6005 C175.884001,204.321499 176.225998,204.182 176.64,204.182 Z M190.437,209.636 C192.651011,209.636 194.324994,210.288493 195.459,211.5935 C196.593006,212.898507 197.16,214.711988 197.16,217.034 C197.16,217.394002 197.151,217.663999 197.133,217.844 L185.847,217.844 C186.045001,219.122006 186.580496,220.138996 187.4535,220.895 C188.326504,221.651004 189.401994,222.029 190.68,222.029 C191.526004,222.029 192.313496,221.876002 193.0425,221.57 C193.771504,221.263998 194.405997,220.832003 194.946,220.274 L196.323,221.705 C195.620996,222.461004 194.775005,223.045998 193.785,223.46 C192.794995,223.874002 191.697006,224.081 190.491,224.081 C189.086993,224.081 187.840505,223.779503 186.7515,223.1765 C185.662495,222.573497 184.816503,221.723005 184.2135,220.625 C183.610497,219.526995 183.309,218.276007 183.309,216.872 C183.309,215.467993 183.610497,214.221505 184.2135,213.1325 C184.816503,212.043495 185.657995,211.188503 186.738,210.5675 C187.818005,209.946497 189.050993,209.636 190.437,209.636 Z M194.892,215.9 C194.82,214.603994 194.388004,213.582504 193.596,212.8355 C192.803996,212.088496 191.760006,211.715 190.464,211.715 C189.203994,211.715 188.155504,212.092996 187.3185,212.849 C186.481496,213.605004 185.982001,214.621994 185.82,215.9 L194.892,215.9 Z M198.213,209.717 L200.886,209.717 L205.179,221.516 L209.445,209.717 L211.983,209.717 L206.421,224 L203.802,224 L198.213,209.717 Z M223.08,224 L223.08,222.002 C222.017995,223.406007 220.353011,224.108 218.085,224.108 C217.094995,224.108 216.226504,223.919002 215.4795,223.541 C214.732496,223.162998 214.156502,222.641003 213.7515,221.975 C213.346498,221.308997 213.144,220.562004 213.144,219.734 C213.144,218.455994 213.616495,217.443504 214.5615,216.6965 C215.506505,215.949496 216.824992,215.567 218.517,215.549 L223.053,215.549 L223.053,214.874 C223.053,213.865995 222.742503,213.087503 222.1215,212.5385 C221.500497,211.989497 220.596006,211.715 219.408,211.715 C217.967993,211.715 216.501007,212.227995 215.007,213.254 L213.954,211.526 C214.980005,210.859997 215.929496,210.378501 216.8025,210.0815 C217.675504,209.784499 218.714994,209.636 219.921,209.636 C221.703009,209.636 223.079995,210.072496 224.052,210.9455 C225.024005,211.818504 225.519,213.037992 225.537,214.604 L225.564,224 L223.08,224 Z M218.598,222.029 C219.768006,222.029 220.762496,221.745503 221.5815,221.1785 C222.400504,220.611497 222.890999,219.860005 223.053,218.924 L223.053,217.493 L218.868,217.493 C217.733994,217.493 216.892503,217.663998 216.3435,218.006 C215.794497,218.348002 215.52,218.887996 215.52,219.626 C215.52,220.364004 215.798997,220.948998 216.357,221.381 C216.915003,221.813002 217.661995,222.029 218.598,222.029 Z M50.604,237.717 L53.277,237.717 L57.57,249.516 L61.836,237.717 L64.374,237.717 L58.812,252 L56.193,252 L50.604,237.717 Z M75.471,252 L75.471,250.002 C74.4089947,251.406007 72.7440113,252.108 70.476,252.108 C69.485995,252.108 68.6175037,251.919002 67.8705,251.541 C67.1234963,251.162998 66.547502,250.641003 66.1425,249.975 C65.737498,249.308997 65.535,248.562004 65.535,247.734 C65.535,246.455994 66.0074953,245.443504 66.9525,244.6965 C67.8975047,243.949496 69.2159915,243.567 70.908,243.549 L75.444,243.549 L75.444,242.874 C75.444,241.865995 75.1335031,241.087503 74.5125,240.5385 C73.8914969,239.989497 72.9870059,239.715 71.799,239.715 C70.3589928,239.715 68.8920075,240.227995 67.398,241.254 L66.345,239.526 C67.3710051,238.859997 68.3204956,238.378501 69.1935,238.0815 C70.0665044,237.784499 71.105994,237.636 72.312,237.636 C74.0940089,237.636 75.4709951,238.072496 76.443,238.9455 C77.4150049,239.818504 77.9099999,241.037992 77.928,242.604 L77.955,252 L75.471,252 Z M70.989,250.029 C72.1590059,250.029 73.1534959,249.745503 73.9725,249.1785 C74.7915041,248.611497 75.2819992,247.860005 75.444,246.924 L75.444,245.493 L71.259,245.493 C70.1249943,245.493 69.2835027,245.663998 68.7345,246.006 C68.1854973,246.348002 67.911,246.887996 67.911,247.626 C67.911,248.364004 68.1899972,248.948998 68.748,249.381 C69.3060028,249.813002 70.0529953,250.029 70.989,250.029 Z M91.158,252 L91.158,250.002 C90.0959947,251.406007 88.4310113,252.108 86.163,252.108 C85.172995,252.108 84.3045037,251.919002 83.5575,251.541 C82.8104963,251.162998 82.234502,250.641003 81.8295,249.975 C81.424498,249.308997 81.222,248.562004 81.222,247.734 C81.222,246.455994 81.6944953,245.443504 82.6395,244.6965 C83.5845047,243.949496 84.9029915,243.567 86.595,243.549 L91.131,243.549 L91.131,242.874 C91.131,241.865995 90.8205031,241.087503 90.1995,240.5385 C89.5784969,239.989497 88.6740059,239.715 87.486,239.715 C86.0459928,239.715 84.5790075,240.227995 83.085,241.254 L82.032,239.526 C83.0580051,238.859997 84.0074956,238.378501 84.8805,238.0815 C85.7535044,237.784499 86.792994,237.636 87.999,237.636 C89.7810089,237.636 91.1579951,238.072496 92.13,238.9455 C93.1020049,239.818504 93.5969999,241.037992 93.615,242.604 L93.642,252 L91.158,252 Z M86.676,250.029 C87.8460058,250.029 88.8404959,249.745503 89.6595,249.1785 C90.4785041,248.611497 90.9689992,247.860005 91.131,246.924 L91.131,245.493 L86.946,245.493 C85.8119943,245.493 84.9705027,245.663998 84.4215,246.006 C83.8724973,246.348002 83.598,246.887996 83.598,247.626 C83.598,248.364004 83.8769972,248.948998 84.435,249.381 C84.9930028,249.813002 85.7399953,250.029 86.676,250.029 Z M105.792,251.055 C104.693995,251.757004 103.578006,252.108 102.444,252.108 C101.309994,252.108 100.392004,251.770503 99.69,251.0955 C98.9879965,250.420497 98.637,249.399007 98.637,248.031 L98.637,240.12 L96.612,240.12 L96.612,238.203 L98.637,238.203 L98.637,234.369 L101.175,234.369 L101.175,238.203 L105.549,238.203 L105.549,240.12 L101.175,240.12 L101.175,247.572 C101.175,248.364004 101.318999,248.930998 101.607,249.273 C101.895001,249.615002 102.326997,249.786 102.903,249.786 C103.587003,249.786 104.324996,249.561002 105.117,249.111 L105.792,251.055 Z M117.564,252 L117.564,250.002 C116.501995,251.406007 114.837011,252.108 112.569,252.108 C111.578995,252.108 110.710504,251.919002 109.9635,251.541 C109.216496,251.162998 108.640502,250.641003 108.2355,249.975 C107.830498,249.308997 107.628,248.562004 107.628,247.734 C107.628,246.455994 108.100495,245.443504 109.0455,244.6965 C109.990505,243.949496 111.308992,243.567 113.001,243.549 L117.537,243.549 L117.537,242.874 C117.537,241.865995 117.226503,241.087503 116.6055,240.5385 C115.984497,239.989497 115.080006,239.715 113.892,239.715 C112.451993,239.715 110.985007,240.227995 109.491,241.254 L108.438,239.526 C109.464005,238.859997 110.413496,238.378501 111.2865,238.0815 C112.159504,237.784499 113.198994,237.636 114.405,237.636 C116.187009,237.636 117.563995,238.072496 118.536,238.9455 C119.508005,239.818504 120.003,241.037992 120.021,242.604 L120.048,252 L117.564,252 Z M113.082,250.029 C114.252006,250.029 115.246496,249.745503 116.0655,249.1785 C116.884504,248.611497 117.374999,247.860005 117.537,246.924 L117.537,245.493 L113.352,245.493 C112.217994,245.493 111.376503,245.663998 110.8275,246.006 C110.278497,246.348002 110.004,246.887996 110.004,247.626 C110.004,248.364004 110.282997,248.948998 110.841,249.381 C111.399003,249.813002 112.145995,250.029 113.082,250.029 Z M142.971,237.636 C144.609008,237.636 145.895995,238.130995 146.832,239.121 C147.768005,240.111005 148.236,241.460991 148.236,243.171 L148.236,252 L145.698,252 L145.698,243.846 C145.698,242.639994 145.369503,241.695003 144.7125,241.011 C144.055497,240.326997 143.151006,239.985 141.999,239.985 C140.648993,240.021 139.587004,240.497995 138.813,241.416 C138.038996,242.334005 137.652,243.512993 137.652,244.953 L137.652,252 L135.114,252 L135.114,243.846 C135.114,242.639994 134.790003,241.695003 134.142,241.011 C133.493997,240.326997 132.585006,239.985 131.415,239.985 C130.064993,240.021 128.998504,240.497995 128.2155,241.416 C127.432496,242.334005 127.041,243.512993 127.041,244.953 L127.041,252 L124.53,252 L124.53,237.717 L127.041,237.717 L127.041,240.714 C127.977005,238.69799 129.749987,237.672 132.36,237.636 C133.674007,237.636 134.767496,237.950997 135.6405,238.581 C136.513504,239.211003 137.102998,240.092994 137.409,241.227 C138.291004,238.868988 140.144986,237.672 142.971,237.636 Z M152.718,237.717 L155.229,237.717 L155.229,252 L152.718,252 L152.718,237.717 Z M153.96,232.02 C154.410002,232.02 154.783499,232.172998 155.0805,232.479 C155.377501,232.785002 155.526,233.171998 155.526,233.64 C155.526,234.108002 155.377501,234.494998 155.0805,234.801 C154.783499,235.107002 154.410002,235.26 153.96,235.26 C153.509998,235.26 153.136501,235.107002 152.8395,234.801 C152.542499,234.494998 152.394,234.108002 152.394,233.64 C152.394,233.171998 152.542499,232.785002 152.8395,232.479 C153.136501,232.172998 153.509998,232.02 153.96,232.02 Z M167.919,240.876 C167.324997,240.515998 166.672504,240.228001 165.9615,240.012 C165.250496,239.795999 164.571003,239.688 163.923,239.688 C163.166996,239.688 162.559502,239.827499 162.1005,240.1065 C161.641498,240.385501 161.412,240.812997 161.412,241.389 C161.412,241.965003 161.668497,242.401499 162.1815,242.6985 C162.694503,242.995501 163.472995,243.296998 164.517,243.603 C165.507005,243.891001 166.316997,244.178999 166.947,244.467 C167.577003,244.755001 168.112498,245.177997 168.5535,245.736 C168.994502,246.294003 169.215,247.031995 169.215,247.95 C169.215,249.300007 168.706505,250.325996 167.6895,251.028 C166.672495,251.730004 165.408008,252.081 163.896,252.081 C162.833995,252.081 161.803505,251.910002 160.8045,251.568 C159.805495,251.225998 158.964003,250.740003 158.28,250.11 L159.225,248.274 C159.819003,248.814003 160.552496,249.245998 161.4255,249.57 C162.298504,249.894002 163.148996,250.056 163.977,250.056 C164.805004,250.056 165.470997,249.903002 165.975,249.597 C166.479003,249.290998 166.731,248.823003 166.731,248.193 C166.731,247.544997 166.465503,247.059002 165.9345,246.735 C165.403497,246.410998 164.598005,246.087002 163.518,245.763 C162.563995,245.492999 161.785503,245.218501 161.1825,244.9395 C160.579497,244.660499 160.066502,244.251003 159.6435,243.711 C159.220498,243.170997 159.009,242.469004 159.009,241.605 C159.009,240.272993 159.494995,239.274003 160.467,238.608 C161.439005,237.941997 162.653993,237.609 164.112,237.609 C164.976004,237.609 165.826496,237.730499 166.6635,237.9735 C167.500504,238.216501 168.224997,238.544998 168.837,238.959 L167.919,240.876 Z M172.536,237.717 L175.047,237.717 L175.047,252 L172.536,252 L172.536,237.717 Z M173.778,232.02 C174.228002,232.02 174.601499,232.172998 174.8985,232.479 C175.195501,232.785002 175.344,233.171998 175.344,233.64 C175.344,234.108002 175.195501,234.494998 174.8985,234.801 C174.601499,235.107002 174.228002,235.26 173.778,235.26 C173.327998,235.26 172.954501,235.107002 172.6575,234.801 C172.360499,234.494998 172.212,234.108002 172.212,233.64 C172.212,233.171998 172.360499,232.785002 172.6575,232.479 C172.954501,232.172998 173.327998,232.02 173.778,232.02 Z" id="1-aasta-ja-5-päeva-v-copy" fill="#FBF5F5"></path>
            <path d="M66.568,55.814 C78.1693913,55.814 87.4092989,58.4576402 94.288,63.745 C101.166701,69.0323598 104.606,76.1419553 104.606,85.074 C104.606,89.5913559 103.451012,93.8263136 101.141,97.779 C98.8309884,101.731686 95.7253528,104.888655 91.824,107.25 C97.4706949,109.816679 101.93665,113.538309 105.222,118.415 C108.50735,123.291691 110.15,128.707304 110.15,134.662 C110.15,141.027365 108.379018,146.596976 104.837,151.371 C101.294982,156.145024 96.2386995,159.81532 89.668,162.382 C83.0973005,164.94868 75.4487103,166.232 66.722,166.232 C57.9952897,166.232 50.3723659,164.94868 43.853,162.382 C37.3336341,159.81532 32.2773513,156.196357 28.684,151.525 C25.0906487,146.853643 23.294,141.386698 23.294,135.124 C23.294,129.066636 25.0906487,123.548358 28.684,118.569 C32.2773513,113.589642 37.0513036,109.816679 43.006,107.25 C38.6939784,104.683321 35.2546795,101.346687 32.688,97.24 C30.1213205,93.1333128 28.838,88.8213559 28.838,84.304 C28.838,78.5546379 30.3779846,73.5240216 33.458,69.212 C36.5380154,64.8999784 40.9269715,61.5890116 46.625,59.279 C52.3230285,56.9689884 58.9706287,55.814 66.568,55.814 Z M66.722,74.756 C62.1019769,74.756 58.5343459,75.7826564 56.019,77.836 C53.5036541,79.8893436 52.246,82.8153143 52.246,86.614 C52.246,90.3100185 53.5036541,93.15899 56.019,95.161 C58.5343459,97.16301 62.1019769,98.164 66.722,98.164 C71.4446903,98.164 75.0379877,97.16301 77.502,95.161 C79.9660123,93.15899 81.198,90.3100185 81.198,86.614 C81.198,82.8153143 79.9660123,79.8893436 77.502,77.836 C75.0379877,75.7826564 71.4446903,74.756 66.722,74.756 Z M66.722,118.8 C61.2806395,118.8 57.0970146,119.954988 54.171,122.265 C51.2449854,124.575012 49.782,127.885978 49.782,132.198 C49.782,136.510022 51.2449854,139.820988 54.171,142.131 C57.0970146,144.441012 61.2806395,145.596 66.722,145.596 C72.1633605,145.596 76.3726518,144.441012 79.35,142.131 C82.3273482,139.820988 83.816,136.510022 83.816,132.198 C83.816,127.885978 82.3273482,124.575012 79.35,122.265 C76.3726518,119.954988 72.1633605,118.8 66.722,118.8 Z M119.236,57.046 L205.322,57.046 L205.322,76.604 L164.666,165 L134.79,165 L174.06,79.684 L144.184,79.684 L144.03,94.93 L119.236,94.93 L119.236,57.046 Z" id="87-copy" fill="#FBF5F5"></path>
            <path d="M63.4295,2.1 L66.2105,2.1 L72.4475,18.111 L78.6845,2.1 L81.4115,2.1 L73.7435,21 L71.0435,21 L63.4295,2.1 Z M84.0035,6.717 L86.5145,6.717 L86.5145,21 L84.0035,21 L84.0035,6.717 Z M85.2455,1.02 C85.6955023,1.02 86.0689985,1.17299847 86.366,1.479 C86.6630015,1.78500153 86.8115,2.17199766 86.8115,2.64 C86.8115,3.10800234 86.6630015,3.49499847 86.366,3.801 C86.0689985,4.10700153 85.6955023,4.26 85.2455,4.26 C84.7954977,4.26 84.4220015,4.10700153 84.125,3.801 C83.8279985,3.49499847 83.6795,3.10800234 83.6795,2.64 C83.6795,2.17199766 83.8279985,1.78500153 84.125,1.479 C84.4220015,1.17299847 84.7954977,1.02 85.2455,1.02 Z M104.7125,0.966 L104.7125,21 L102.2015,21 L102.2015,18.165 C101.661497,19.1190048 100.937005,19.8524974 100.028,20.3655 C99.1189955,20.8785026 98.061506,21.135 96.8555,21.135 C95.5054933,21.135 94.3130052,20.8245031 93.278,20.2035 C92.2429948,19.5824969 91.4375029,18.7185055 90.8615,17.6115 C90.2854971,16.5044945 89.9975,15.2400071 89.9975,13.818 C89.9975,12.413993 90.2854971,11.1675054 90.8615,10.0785 C91.4375029,8.98949455 92.2429948,8.13900306 93.278,7.527 C94.3130052,6.91499694 95.4964933,6.609 96.8285,6.609 C98.0525061,6.609 99.1234954,6.86099748 100.0415,7.365 C100.959505,7.86900252 101.679497,8.59799523 102.2015,9.552 L102.2015,0.966 L104.7125,0.966 Z M97.3685,18.975 C98.3045047,18.975 99.1369964,18.7590022 99.866,18.327 C100.595004,17.8949978 101.166498,17.2920039 101.5805,16.518 C101.994502,15.7439961 102.2015,14.8710049 102.2015,13.899 C102.2015,12.9089951 101.994502,12.0270039 101.5805,11.253 C101.166498,10.4789961 100.595004,9.87600216 99.866,9.444 C99.1369964,9.01199784 98.3045047,8.796 97.3685,8.796 C96.4324953,8.796 95.6000036,9.01649779 94.871,9.4575 C94.1419964,9.8985022 93.5705021,10.5059961 93.1565,11.28 C92.7424979,12.0540039 92.5355,12.9269951 92.5355,13.899 C92.5355,14.8710049 92.7424979,15.7439961 93.1565,16.518 C93.5705021,17.2920039 94.1419964,17.8949978 94.871,18.327 C95.6000036,18.7590022 96.4324953,18.975 97.3685,18.975 Z M115.4855,6.636 C117.699511,6.636 119.373494,7.28849347 120.5075,8.5935 C121.641506,9.89850653 122.2085,11.7119884 122.2085,14.034 C122.2085,14.3940018 122.1995,14.6639991 122.1815,14.844 L110.8955,14.844 C111.093501,16.1220064 111.628996,17.1389962 112.502,17.895 C113.375004,18.6510038 114.450494,19.029 115.7285,19.029 C116.574504,19.029 117.361996,18.8760015 118.091,18.57 C118.820004,18.2639985 119.454497,17.8320028 119.9945,17.274 L121.3715,18.705 C120.669496,19.4610038 119.823505,20.0459979 118.8335,20.46 C117.843495,20.8740021 116.745506,21.081 115.5395,21.081 C114.135493,21.081 112.889005,20.779503 111.8,20.1765 C110.710995,19.573497 109.865003,18.7230055 109.262,17.625 C108.658997,16.5269945 108.3575,15.276007 108.3575,13.872 C108.3575,12.467993 108.658997,11.2215054 109.262,10.1325 C109.865003,9.04349456 110.706495,8.1885031 111.7865,7.5675 C112.866505,6.94649689 114.099493,6.636 115.4855,6.636 Z M119.9405,12.9 C119.8685,11.6039935 119.436504,10.5825037 118.6445,9.8355 C117.852496,9.08849627 116.808506,8.715 115.5125,8.715 C114.252494,8.715 113.204004,9.09299622 112.367,9.849 C111.529996,10.6050038 111.030501,11.6219936 110.8685,12.9 L119.9405,12.9 Z M131.5775,6.636 C132.999507,6.636 134.263994,6.94199694 135.371,7.554 C136.478006,8.16600306 137.341997,9.01649456 137.963,10.1055 C138.584003,11.1945054 138.8945,12.440993 138.8945,13.845 C138.8945,15.249007 138.584003,16.4999945 137.963,17.598 C137.341997,18.6960055 136.478006,19.5509969 135.371,20.163 C134.263994,20.7750031 132.999507,21.081 131.5775,21.081 C130.137493,21.081 128.864006,20.7750031 127.757,20.163 C126.649994,19.5509969 125.786003,18.7005054 125.165,17.6115 C124.543997,16.5224946 124.2335,15.2670071 124.2335,13.845 C124.2335,12.440993 124.543997,11.1945054 125.165,10.1055 C125.786003,9.01649456 126.649994,8.16600306 127.757,7.554 C128.864006,6.94199694 130.137493,6.636 131.5775,6.636 Z M131.5775,8.823 C130.641495,8.823 129.809004,9.03899784 129.08,9.471 C128.350996,9.90300216 127.784002,10.5014962 127.379,11.2665 C126.973998,12.0315038 126.7715,12.8999951 126.7715,13.872 C126.7715,14.862005 126.973998,15.7439961 127.379,16.518 C127.784002,17.2920039 128.350996,17.8904979 129.08,18.3135 C129.809004,18.7365021 130.641495,18.948 131.5775,18.948 C132.495505,18.948 133.318996,18.7365021 134.048,18.3135 C134.777004,17.8904979 135.343998,17.2920039 135.749,16.518 C136.154002,15.7439961 136.3565,14.862005 136.3565,13.872 C136.3565,12.8999951 136.154002,12.0315038 135.749,11.2665 C135.343998,10.5014962 134.777004,9.90300216 134.048,9.471 C133.318996,9.03899784 132.495505,8.823 131.5775,8.823 Z M142.4045,6.717 L144.9155,6.717 L144.9155,21 L142.4045,21 L142.4045,6.717 Z M143.6465,1.02 C144.096502,1.02 144.469999,1.17299847 144.767,1.479 C145.064001,1.78500153 145.2125,2.17199766 145.2125,2.64 C145.2125,3.10800234 145.064001,3.49499847 144.767,3.801 C144.469999,4.10700153 144.096502,4.26 143.6465,4.26 C143.196498,4.26 142.823001,4.10700153 142.526,3.801 C142.228999,3.49499847 142.0805,3.10800234 142.0805,2.64 C142.0805,2.17199766 142.228999,1.78500153 142.526,1.479 C142.823001,1.17299847 143.196498,1.02 143.6465,1.02 Z M163.1135,0.966 L163.1135,21 L160.6025,21 L160.6025,18.165 C160.062497,19.1190048 159.338005,19.8524974 158.429,20.3655 C157.519995,20.8785026 156.462506,21.135 155.2565,21.135 C153.906493,21.135 152.714005,20.8245031 151.679,20.2035 C150.643995,19.5824969 149.838503,18.7185055 149.2625,17.6115 C148.686497,16.5044945 148.3985,15.2400071 148.3985,13.818 C148.3985,12.413993 148.686497,11.1675054 149.2625,10.0785 C149.838503,8.98949455 150.643995,8.13900306 151.679,7.527 C152.714005,6.91499694 153.897493,6.609 155.2295,6.609 C156.453506,6.609 157.524495,6.86099748 158.4425,7.365 C159.360505,7.86900252 160.080497,8.59799523 160.6025,9.552 L160.6025,0.966 L163.1135,0.966 Z M155.7695,18.975 C156.705505,18.975 157.537996,18.7590022 158.267,18.327 C158.996004,17.8949978 159.567498,17.2920039 159.9815,16.518 C160.395502,15.7439961 160.6025,14.8710049 160.6025,13.899 C160.6025,12.9089951 160.395502,12.0270039 159.9815,11.253 C159.567498,10.4789961 158.996004,9.87600216 158.267,9.444 C157.537996,9.01199784 156.705505,8.796 155.7695,8.796 C154.833495,8.796 154.001004,9.01649779 153.272,9.4575 C152.542996,9.8985022 151.971502,10.5059961 151.5575,11.28 C151.143498,12.0540039 150.9365,12.9269951 150.9365,13.899 C150.9365,14.8710049 151.143498,15.7439961 151.5575,16.518 C151.971502,17.2920039 152.542996,17.8949978 153.272,18.327 C154.001004,18.7590022 154.833495,18.975 155.7695,18.975 Z" id="Videoid-Copy" fill="#D0021B"></path>
        </g>
    </g>
</svg>